<svg xmlns="http://www.w3.org/2000/svg" width="45" height="65"><ellipse cx="22" cy="61" rx="7" ry="3" fill="#000000" fill-opacity="0.4"><animate attributeName="ry" values="3;2.7;3" dur="5s" repeatCount="indefinite"/><animate attributeName="rx" values="13;9;7;11;13" dur="5s" repeatCount="indefinite"/><animate attributeName="opacity" values="0.4;0.8;0.4" dur="5s" repeatCount="indefinite"/></ellipse><path fill="#F55753" d="M41 20.455C41 9.946 32.48 1.43 21.972 1.43c-10.506 0-19.025 8.517-19.025 19.025 0 .109.008.217.008.326h-.009c0 .2.018.395.025.595 0 .027 0 .054.002.082C3.531 36.111 21.975 48 21.975 48s18.44-11.889 18.998-26.542c.003-.027.003-.054.003-.082.007-.2.024-.395.024-.595h-.008c0-.109.008-.217.008-.326zm-18.846 9.068c-5.398 0-9.775-4.378-9.775-9.779 0-5.396 4.377-9.773 9.775-9.773 5.399 0 9.776 4.376 9.776 9.773.001 5.402-4.376 9.779-9.776 9.779z"><animateTransform attributeName="transform" type="translate" values="0 1;0 8;0 12;0 4;0 1" dur="5s" begin="0" repeatCount="indefinite"/></path></svg>