<svg xmlns="http://www.w3.org/2000/svg" width="44.5" height="67"><ellipse opacity=".2" cx="21.729" cy="59.913" rx="9.648" ry="2.398"><animate attributeName="rx" values="9;7;6;8.5;9" dur="8s" repeatCount="indefinite"/></ellipse><path fill="#6D5CAE" d="M42.97 22.861c0-11.544-9.356-20.902-20.9-20.902S1.167 11.317 1.167 22.861c0 3.889 1.081 7.516 2.93 10.634l-.024.005S7.991 42.057 21.641 54h.854c13.649-11.943 17.568-20.5 17.568-20.5l-.023-.005a20.773 20.773 0 0 0 2.93-10.634zM22.069 38.645c-8.719 0-15.783-7.066-15.783-15.783S13.351 7.078 22.069 7.078c8.716 0 15.782 7.066 15.782 15.783s-7.066 15.784-15.782 15.784z"><animateTransform attributeName="transform" type="translate" values="0 -2;0 5;0 0;0 -2" dur="8s" begin="0" repeatCount="indefinite"/></path></svg>