<svg xmlns="http://www.w3.org/2000/svg" width="118" height="55"><path fill="#E6E6E6" d="M0 0H118V55H0z"/><circle opacity=".3" fill="#626262" cx="107" cy="11" r="4"/><path opacity=".2" fill="#626262" d="M87 10.5a1.5 1.5 0 0 1-1.5 1.5h-77a1.5 1.5 0 1 1 0-3h77a1.5 1.5 0 0 1 1.5 1.5zm-22 9a1.5 1.5 0 0 1-1.5 1.5h-55a1.5 1.5 0 1 1 0-3h55a1.5 1.5 0 0 1 1.5 1.5z"/><path opacity=".1" fill="#626262" d="M62 45.5c0 .828-.352 1.5-.786 1.5H7.786C7.352 47 7 46.328 7 45.5s.352-1.5.786-1.5h53.428c.434 0 .786.672.786 1.5z"/></svg>