<svg xmlns="http://www.w3.org/2000/svg" width="110" height="45"><path fill="#E6E6E6" d="M104 22.5C104 33.822 94.822 43 83.5 43h-57C15.178 43 6 33.822 6 22.5S15.178 2 26.5 2h57C94.822 2 104 11.178 104 22.5z"/><path opacity=".2" fill="#626262" d="M61 30.5a1.5 1.5 0 0 1-1.5 1.5h-39a1.5 1.5 0 1 1 0-3h39a1.5 1.5 0 0 1 1.5 1.5zm8-8a1.5 1.5 0 0 1-1.5 1.5h-47a1.5 1.5 0 1 1 0-3h47a1.5 1.5 0 0 1 1.5 1.5zm-19-8a1.5 1.5 0 0 1-1.5 1.5h-28a1.5 1.5 0 1 1 0-3h28a1.5 1.5 0 0 1 1.5 1.5z"/><circle opacity=".3" fill="#626262" cx="87.5" cy="21.5" r="5.5"/></svg>