<svg xmlns="http://www.w3.org/2000/svg" width="400" height="285"><g opacity=".3" fill="none" stroke="#626262" stroke-width="2" stroke-miterlimit="10"><path d="M398 281L398 284 396 284"/><path stroke-dasharray="5,2" d="M394 284L5 284"/><path d="M4 284L1 284 1 281"/><path stroke-dasharray="5,2" d="M1 279L1 4"/><path d="M1 3L1 1 4 1"/><path stroke-dasharray="5,2" d="M6 1L395 1"/><path d="M396 1L398 1 398 3"/><path stroke-dasharray="5,2" d="M398 5L398 280"/></g><path fill="#F0F0F0" d="M275 194a2 2 0 0 1-2 2H128a2 2 0 0 1-2-2v-94a2 2 0 0 1 2-2h145a2 2 0 0 1 2 2v94z"/><path fill="#E6E6E6" d="M137 148H180V152H137z"/><path fill="#E6E6E6" d="M137 157H198V161H137z"/><path fill="#E6E6E6" d="M137 105H198V109H137z"/><path fill="#E6E6E6" d="M193 135a2 2 0 0 1-2 2h-52a2 2 0 0 1-2-2v-12a2 2 0 0 1 2-2h52a2 2 0 0 1 2 2v12zm61 0a2 2 0 0 1-2 2h-52a2 2 0 0 1-2-2v-12a2 2 0 0 1 2-2h52a2 2 0 0 1 2 2v12z"/><path fill="#2C2C2C" d="M225 186a2 2 0 0 1-2 2h-33a2 2 0 0 1-2-2v-14a2 2 0 0 1 2-2h33a2 2 0 0 1 2 2v14z"/><path fill="#00CFBC" d="M265 186a2 2 0 0 1-2 2h-33a2 2 0 0 1-2-2v-14a2 2 0 0 1 2-2h33a2 2 0 0 1 2 2v14z"/></svg>