<svg xmlns="http://www.w3.org/2000/svg" width="400" height="285"><g opacity=".3" fill="none" stroke="#626262" stroke-width="2" stroke-miterlimit="10"><path d="M398 281L398 284 396 284"/><path stroke-dasharray="5,2" d="M394 284L5 284"/><path d="M4 284L1 284 1 281"/><path stroke-dasharray="5,2" d="M1 279L1 4"/><path d="M1 3L1 1 4 1"/><path stroke-dasharray="5,2" d="M6 1L395 1"/><path d="M396 1L398 1 398 3"/><path stroke-dasharray="5,2" d="M398 5L398 280"/></g><path fill="#F0F0F0" d="M273 2v59a2 2 0 0 1-2 2H126a2 2 0 0 1-2-2V2"/><path fill="#E6E6E6" d="M135 12H204V16H135z"/><path fill="#E6E6E6" d="M220 12H263V16H220z"/><path fill="#E6E6E6" d="M135 21H196V25H135z"/><path fill="#2C2C2C" d="M223 51a2 2 0 0 1-2 2h-33a2 2 0 0 1-2-2V37a2 2 0 0 1 2-2h33a2 2 0 0 1 2 2v14z"/><path fill="#00CFBC" d="M263 51a2 2 0 0 1-2 2h-33a2 2 0 0 1-2-2V37a2 2 0 0 1 2-2h33a2 2 0 0 1 2 2v14z"/></svg>