<svg xmlns="http://www.w3.org/2000/svg" width="400" height="285"><g opacity=".3" fill="none" stroke="#626262" stroke-width="2" stroke-miterlimit="10"><path d="M398 281L398 284 396 284"/><path stroke-dasharray="5,2" d="M394 284L5 284"/><path d="M4 284L1 284 1 281"/><path stroke-dasharray="5,2" d="M1 279L1 4"/><path d="M1 3L1 1 4 1"/><path stroke-dasharray="5,2" d="M6 1L395 1"/><path d="M396 1L398 1 398 3"/><path stroke-dasharray="5,2" d="M398 5L398 280"/></g><path fill="#00CFBC" d="M274.5 150.443a2.557 2.557 0 0 1-2.555 2.557h-41.891a2.556 2.556 0 0 1-2.556-2.557v-17.889a2.556 2.556 0 0 1 2.556-2.556h41.891a2.556 2.556 0 0 1 2.555 2.556v17.889z"/><path fill="#F0F0F0" d="M221.5 150.443a2.557 2.557 0 0 1-2.555 2.557h-89.89a2.556 2.556 0 0 1-2.555-2.557v-17.889a2.555 2.555 0 0 1 2.555-2.556h89.89a2.556 2.556 0 0 1 2.556 2.556l-.001 17.889z"/></svg>