<svg xmlns="http://www.w3.org/2000/svg" width="400" height="285"><g opacity=".3" fill="none" stroke="#626262" stroke-width="2" stroke-miterlimit="10"><path d="M398 281L398 284 396 284"/><path stroke-dasharray="5,2" d="M394 284L5 284"/><path d="M4 284L1 284 1 281"/><path stroke-dasharray="5,2" d="M1 279L1 4"/><path d="M1 3L1 1 4 1"/><path stroke-dasharray="5,2" d="M6 1L395 1"/><path d="M396 1L398 1 398 3"/><path stroke-dasharray="5,2" d="M398 5L398 280"/></g><path fill="#F0F0F0" d="M297 1.719H396.75V282.969H297z"/><path fill="#E6E6E6" d="M313 106.031H382V110.031H313z"/><path fill="#E6E6E6" d="M326 125.031H369V129.031H326z"/><path fill="#E6E6E6" d="M317 115.031H378V119.031H317z"/><path fill="#00CFBC" d="M380 154.906a3 3 0 0 1-3 3h-58a3 3 0 0 1-3-3v-9.999a3 3 0 0 1 3-3h58a3 3 0 0 1 3 3v9.999z"/><path fill="#2C2C2C" d="M380 175.656a3 3 0 0 1-3 3h-58a3 3 0 0 1-3-3v-9.999a3 3 0 0 1 3-3h58a3 3 0 0 1 3 3v9.999z"/></svg>