<svg xmlns="http://www.w3.org/2000/svg" width="83" height="83"><path fill="#778095" d="M73.5 0h-6v1h6V0zm-10 0h-6v1h6V0zm-10 0h-6v1h6V0zm-10 0h-6v1h6V0zm-10 0h-6v1h6V0zm-10 0h-6v1h6V0zm-10 0h-6v1h6V0zm-10 0H0v2.5h1V1h2.5V0zM1 6.5H0v6h1v-6zm0 10H0v6h1v-6zm0 10H0v6h1v-6zm0 10H0v6h1v-6zm0 10H0v6h1v-6zm0 10H0v6h1v-6zm0 10H0v6h1v-6zm0 10H0v6h1v-6zM9.5 82h-6v1h6v-1zm10 0h-6v1h6v-1zm10 0h-6v1h6v-1zm10 0h-6v1h6v-1zm10 0h-6v1h6v-1zm10 0h-6v1h6v-1zm10 0h-6v1h6v-1zm10 0h-6v1h6v-1zm3.5-5.5h-1v6h1v-6zm0-10h-1v6h1v-6zm0-10h-1v6h1v-6zm0-10h-1v6h1v-6zm0-10h-1v6h1v-6zm0-10h-1v6h1v-6zm0-10h-1v6h1v-6zm0-10h-1v6h1v-6zM83 0h-5.5v1H82v1.5h1V0z"/><path fill="#778095" d="M33 39.8H50V43.199999999999996H33z"/><path fill="#778095" d="M39.8 33H43.199999999999996V50H39.8z"/></svg>