<svg xmlns="http://www.w3.org/2000/svg" width="83" height="83"><path fill="#6D5EAC" d="M0 0H83V83H0z"/><path fill="#FFF" d="M13.35 26.725h2.856v1.396h.042c.367-.592.832-1.021 1.396-1.29s1.185-.402 1.861-.402c.86 0 1.601.162 2.221.486a4.577 4.577 0 0 1 1.544 1.291c.409.536.712 1.16.91 1.872.197.712.296 1.456.296 2.232 0 .734-.099 1.439-.296 2.116a5.362 5.362 0 0 1-.899 1.797 4.446 4.446 0 0 1-1.502 1.249c-.599.31-1.3.465-2.104.465a4.244 4.244 0 0 1-1.872-.413 3.537 3.537 0 0 1-1.406-1.216h-.042v5.182H13.35V26.725zm5.521 8.968c.494 0 .906-.098 1.237-.295s.599-.456.804-.772c.205-.317.349-.688.434-1.111.084-.423.127-.853.127-1.29 0-.437-.046-.868-.138-1.291a3.457 3.457 0 0 0-.455-1.131 2.524 2.524 0 0 0-.814-.805c-.331-.205-.736-.306-1.216-.306-.494 0-.906.102-1.237.306s-.599.47-.804.793a3.284 3.284 0 0 0-.434 1.122c-.084.422-.127.86-.127 1.311 0 .438.045.867.137 1.29.092.423.24.793.444 1.111.205.316.476.575.814.772.339.198.748.296 1.228.296zm6.219-5.606c.042-.705.218-1.291.529-1.755.31-.465.705-.839 1.184-1.122a5.223 5.223 0 0 1 1.618-.603c.6-.12 1.202-.179 1.809-.179.55-.001 1.107.038 1.671.116a5.083 5.083 0 0 1 1.544.456c.465.225.846.539 1.143.941.296.402.444.934.444 1.597v5.69c0 .494.028.966.084 1.417.056.451.155.79.296 1.016h-3.046a4.286 4.286 0 0 1-.211-1.058 3.925 3.925 0 0 1-1.692 1.036 6.805 6.805 0 0 1-1.988.296 5.362 5.362 0 0 1-1.459-.19 3.326 3.326 0 0 1-1.185-.592 2.756 2.756 0 0 1-.793-1.015c-.19-.409-.286-.896-.286-1.461 0-.62.109-1.131.328-1.533.219-.402.501-.723.846-.963.346-.24.741-.419 1.185-.539.444-.12.892-.215 1.343-.286.452-.07.896-.127 1.333-.168a7.895 7.895 0 0 0 1.164-.191c.338-.084.606-.208.804-.37s.289-.398.275-.708c0-.324-.053-.582-.159-.772s-.247-.338-.423-.444a1.65 1.65 0 0 0-.613-.212 5.2 5.2 0 0 0-.751-.052c-.592 0-1.057.126-1.396.381-.338.253-.536.677-.592 1.269H25.09zm6.938 2.222a1.337 1.337 0 0 1-.477.264c-.19.064-.395.117-.613.159a9.482 9.482 0 0 1-.688.106c-.24.028-.479.063-.719.105-.226.042-.448.1-.667.17-.218.07-.409.166-.571.285a1.358 1.358 0 0 0-.392.455c-.099.184-.148.416-.148.699 0 .267.049.494.148.676s.232.328.402.435c.169.105.367.179.592.221.226.043.458.063.698.063.592 0 1.051-.098 1.375-.295.325-.197.564-.434.719-.709.156-.275.25-.552.286-.834.035-.283.052-.508.053-.677v-1.123zm14.785 4.654c0 .436-.061.938-.18 1.5a3.718 3.718 0 0 1-.772 1.576c-.396.487-.965.899-1.713 1.238-.748.337-1.748.507-3.004.507a6.99 6.99 0 0 1-1.639-.201 5.195 5.195 0 0 1-1.523-.624 3.75 3.75 0 0 1-1.143-1.09c-.303-.443-.476-.976-.518-1.596h2.983c.141.564.416.956.825 1.174.409.217.881.328 1.417.328.846 0 1.463-.255 1.851-.762s.575-1.149.562-1.924V35.65h-.044a2.974 2.974 0 0 1-1.385 1.28 4.485 4.485 0 0 1-1.893.413c-.818 0-1.523-.145-2.116-.434a4.012 4.012 0 0 1-1.459-1.184 4.936 4.936 0 0 1-.835-1.756 8.334 8.334 0 0 1-.264-2.126c0-.705.102-1.386.307-2.041a5.327 5.327 0 0 1 .899-1.735c.395-.5.884-.899 1.47-1.196.585-.296 1.259-.443 2.02-.443.72-.001 1.35.134 1.893.402s.998.719 1.364 1.354h.044v-1.46h2.854v10.239zm-5.415-1.884c.423 0 .797-.083 1.121-.253.324-.168.592-.395.804-.676.212-.283.37-.603.476-.963.106-.359.16-.737.16-1.131 0-.452-.044-.878-.128-1.28a3.224 3.224 0 0 0-.423-1.069 2.189 2.189 0 0 0-.783-.74c-.324-.183-.733-.274-1.227-.274-.423 0-.786.084-1.089.253a2.289 2.289 0 0 0-.762.688 2.89 2.89 0 0 0-.444.994 4.902 4.902 0 0 0-.138 1.174c0 .396.039.787.117 1.175.077.387.211.736.402 1.047.19.31.44.564.75.762.311.195.699.293 1.164.293zm9.245-2.157c.042.973.289 1.678.74 2.116s1.1.655 1.946.655c.606 0 1.127-.15 1.565-.455.437-.304.705-.625.804-.962h2.645c-.424 1.312-1.072 2.25-1.947 2.814-.874.563-1.932.845-3.173.845-.86 0-1.635-.137-2.326-.413a4.85 4.85 0 0 1-1.756-1.173 5.3 5.3 0 0 1-1.11-1.82c-.262-.705-.393-1.479-.393-2.327 0-.817.136-1.579.402-2.284a5.362 5.362 0 0 1 1.143-1.83 5.402 5.402 0 0 1 1.766-1.216c.685-.296 1.443-.443 2.274-.443.932 0 1.742.179 2.433.54.69.359 1.259.842 1.702 1.449a5.93 5.93 0 0 1 .963 2.072c.197.776.269 1.586.212 2.433h-7.89zm4.886-1.903c-.142-.762-.393-1.34-.752-1.735s-.905-.592-1.639-.592c-.479 0-.878.081-1.195.243s-.571.364-.762.603c-.189.24-.324.494-.401.762a3.418 3.418 0 0 0-.138.72h4.887zm6.05 3.088c0 .324.066.603.2.834.135.234.307.424.518.572.212.148.456.257.729.328.275.07.562.105.858.105.211 0 .433-.024.666-.073.231-.05.443-.128.635-.233.189-.105.348-.246.475-.423.128-.176.191-.398.191-.666 0-.452-.3-.79-.899-1.016-.599-.225-1.435-.452-2.507-.677a14.563 14.563 0 0 1-1.279-.35 4.383 4.383 0 0 1-1.11-.528 2.55 2.55 0 0 1-.783-.825c-.197-.332-.296-.737-.296-1.217 0-.705.137-1.282.412-1.734s.639-.807 1.09-1.068a4.78 4.78 0 0 1 1.522-.55 9.379 9.379 0 0 1 1.735-.158c.592 0 1.166.056 1.723.169a4.526 4.526 0 0 1 1.492.571c.438.268.8.624 1.089 1.068.29.444.462 1.004.518 1.682h-2.854c-.044-.579-.261-.969-.656-1.174s-.861-.307-1.396-.307c-.169 0-.354.011-.551.031a1.824 1.824 0 0 0-.539.138 1.118 1.118 0 0 0-.412.307c-.112.134-.169.314-.169.539 0 .268.099.486.296.656.197.168.455.306.772.412.316.106.681.201 1.089.286.409.084.826.176 1.248.275.438.099.864.218 1.28.359.415.141.786.328 1.11.56.324.234.584.522.781.868.198.346.297.772.297 1.28 0 .72-.145 1.321-.433 1.808a3.474 3.474 0 0 1-1.133 1.175 4.657 4.657 0 0 1-1.597.625A9.366 9.366 0 0 1 62 37.745a4.883 4.883 0 0 1-1.618-.635 3.618 3.618 0 0 1-1.162-1.173c-.305-.487-.469-1.097-.498-1.83h2.857z"/><g><path fill="#DACCFF" d="M70.991 35.373H70v-.906h3.07v.906h-.991V38h-1.088v-2.627zm2.228-.906h1.55l.505 2.079h.009l.505-2.079h1.549V38h-1.03v-2.265h-.009L75.684 38h-.812l-.614-2.265h-.01V38h-1.029v-3.533z"/></g><path opacity=".17" fill="#231F20" d="M74 62c0 1.104-1.219 2-2.724 2H12.724C11.219 64 10 63.104 10 62V51c0-1.104 1.219-2 2.724-2h58.552c1.505 0 2.724.896 2.724 2v11z"/><g><path fill="#DACCFF" d="M17.41 58.62c.767 0 1.394-.304 1.88-.91l1 1.03c-.793.894-1.729 1.34-2.805 1.34s-1.963-.34-2.66-1.021c-.697-.68-1.045-1.538-1.045-2.574 0-1.037.355-1.902 1.065-2.596s1.579-1.04 2.605-1.04c1.146 0 2.107.438 2.88 1.311l-.97 1.1c-.494-.613-1.107-.92-1.84-.92-.587 0-1.088.191-1.505.575-.417.384-.625.9-.625 1.55s.197 1.172.59 1.565c.394.394.87.59 1.43.59zM26.45 60l-.65-1.51h-2.93L22.22 60h-1.66l3.02-6.99h1.51L28.11 60h-1.66zm-2.11-4.91l-.88 2.03h1.75l-.87-2.03zM28.92 60v-6.99h1.56v5.601h2.98V60h-4.54zm10.72-6.99v1.39h-3.48v1.439h3.13v1.33h-3.13v1.45h3.59V60H34.6v-6.99h5.04zm6.39 0h1.56V60h-1.56l-3.33-4.38V60h-1.56v-6.99h1.46l3.431 4.5v-4.5zm8.62.915c.666.61 1 1.459 1 2.545 0 1.087-.325 1.947-.975 2.58-.65.634-1.642.95-2.975.95h-2.39v-6.99h2.47c1.247 0 2.203.305 2.87.915zm-1.144 4.155c.383-.36.574-.884.574-1.57s-.191-1.215-.574-1.585c-.385-.37-.973-.555-1.766-.555h-.87v4.25h.99c.713 0 1.261-.18 1.646-.54zM61.779 60l-.649-1.51h-2.931L57.55 60h-1.659l3.02-6.99h1.51l3.02 6.99h-1.662zm-2.109-4.91l-.88 2.03h1.75l-.87-2.03zm10.25.24c0 1.12-.443 1.844-1.33 2.17l1.77 2.5h-1.921l-1.549-2.23h-1.08V60h-1.56v-6.99h2.65c1.086 0 1.861.184 2.324.55.464.367.696.957.696 1.77zm-1.88.83c.193-.174.29-.448.29-.825s-.1-.635-.3-.775c-.2-.14-.55-.21-1.05-.21h-1.17v2.07h1.14c.533 0 .897-.087 1.09-.26z"/></g></svg>