<svg xmlns="http://www.w3.org/2000/svg" width="55" height="30"><path fill="#2D2C2C" d="M17.13 3.972v-.648c.06.052.13.1.209.141.08.043.166.08.257.109.09.029.18.052.27.067.09.016.173.024.249.024.265 0 .462-.044.592-.132a.436.436 0 0 0 .195-.385.424.424 0 0 0-.065-.235.717.717 0 0 0-.18-.182 1.996 1.996 0 0 0-.276-.156c-.105-.051-.218-.104-.338-.158a5.488 5.488 0 0 1-.36-.21 1.537 1.537 0 0 1-.29-.235c-.082-.086-.148-.182-.194-.29s-.07-.234-.07-.379c0-.178.04-.334.12-.466.081-.131.186-.24.318-.326s.282-.15.45-.19c.168-.042.338-.063.514-.063.398 0 .687.045.87.135v.624c-.216-.156-.494-.233-.833-.233-.093 0-.187.008-.28.026a.828.828 0 0 0-.25.087.56.56 0 0 0-.178.156.386.386 0 0 0-.068.232c0 .084.017.157.053.22a.577.577 0 0 0 .155.17c.067.05.15.1.249.149s.211.101.34.157c.133.07.258.141.376.218.117.076.22.16.31.252.089.092.16.194.212.306.053.113.078.24.078.383 0 .192-.04.356-.116.487a.937.937 0 0 1-.315.324 1.395 1.395 0 0 1-.454.18 2.507 2.507 0 0 1-1.064 0 2.749 2.749 0 0 1-.276-.068.89.89 0 0 1-.21-.09zm5.362-1.039h-1.85c.007.251.084.444.232.581.147.136.35.204.608.204.29 0 .556-.087.798-.26v.496c-.248.156-.575.233-.981.233-.4 0-.713-.123-.94-.37-.227-.246-.34-.593-.34-1.04 0-.422.124-.767.374-1.032.25-.267.561-.4.932-.4s.658.12.862.358c.203.239.305.57.305.995v.235zm-.595-.434c-.001-.221-.053-.393-.156-.516s-.244-.185-.423-.185a.595.595 0 0 0-.45.195.88.88 0 0 0-.227.505h1.257zm3.651 1.408c0 .996-.5 1.494-1.502 1.494-.354 0-.663-.059-.926-.177v-.562c.297.17.579.255.847.255.644 0 .967-.318.967-.952v-.297h-.01c-.204.346-.51.519-.919.519a.99.99 0 0 1-.799-.361c-.202-.241-.303-.566-.303-.972 0-.462.109-.828.326-1.1.218-.273.516-.409.895-.409.36 0 .625.147.8.44h.01V1.41h.614v2.498zm-.61-1.027v-.352a.69.69 0 0 0-.189-.49.618.618 0 0 0-.473-.203.65.65 0 0 0-.548.26c-.13.171-.197.412-.197.722 0 .266.063.48.19.64.126.16.293.24.502.24a.652.652 0 0 0 .517-.23.86.86 0 0 0 .199-.587zm3.71.053h-1.85c.007.251.084.444.231.581.149.136.35.204.61.204.289 0 .554-.087.797-.26v.496c-.247.156-.575.233-.981.233-.4 0-.713-.123-.94-.37-.227-.246-.34-.593-.34-1.04 0-.422.125-.767.375-1.032.25-.267.561-.4.932-.4s.658.12.862.358c.203.239.304.57.304.995v.235zm-.593-.434c-.002-.221-.055-.393-.157-.516a.524.524 0 0 0-.423-.185.59.59 0 0 0-.45.195.88.88 0 0 0-.227.506h1.257zm2.384 1.688c-.42 0-.755-.127-1.003-.38-.251-.254-.376-.59-.376-1.009 0-.456.13-.812.39-1.068.262-.256.61-.385 1.056-.385.422 0 .753.125.99.374.236.25.356.595.356 1.036 0 .433-.13.78-.384 1.04-.255.262-.598.392-1.029.392zm.028-2.352c-.24 0-.43.084-.57.252-.14.168-.21.4-.21.696 0 .284.07.508.211.672a.718.718 0 0 0 .569.245c.244 0 .428-.081.56-.242.13-.16.194-.39.194-.686 0-.3-.065-.53-.195-.692-.131-.163-.315-.245-.56-.245zm5.003.75c0 1.069-.506 1.602-1.518 1.602-.968 0-1.452-.514-1.452-1.54V.322h.63v2.195c0 .746.29 1.12.87 1.12.558 0 .838-.361.838-1.08V.322h.632v2.263zm1.54 1.538h-.65V.322h.65v3.801zM18.32 7.736h-.299l-.246-.412a.823.823 0 0 0-.065-.098.387.387 0 0 0-.064-.065.222.222 0 0 0-.072-.038.305.305 0 0 0-.087-.012h-.103v.625h-.255V6.194h.508c.072 0 .138.009.2.025.06.017.114.043.158.078a.352.352 0 0 1 .106.13.405.405 0 0 1 .039.183.426.426 0 0 1-.094.271.411.411 0 0 1-.107.091.578.578 0 0 1-.141.059v.003a.445.445 0 0 1 .073.052l.059.059a.547.547 0 0 1 .056.068c.018.026.038.055.06.09l.274.432zm-.936-1.333v.5h.212c.04 0 .076-.006.11-.018a.244.244 0 0 0 .144-.136.295.295 0 0 0 .02-.112.221.221 0 0 0-.07-.173c-.048-.042-.114-.061-.202-.061h-.214zm1.962.85h-.75a.32.32 0 0 0 .093.237c.061.054.143.083.248.083a.547.547 0 0 0 .323-.106v.2a.733.733 0 0 1-.398.095.495.495 0 0 1-.38-.15c-.093-.1-.139-.24-.139-.422 0-.171.05-.31.152-.42a.5.5 0 0 1 .379-.16c.15 0 .266.048.349.144.082.098.123.232.123.404v.095zm-.241-.175c0-.09-.022-.16-.063-.21a.213.213 0 0 0-.172-.074.244.244 0 0 0-.183.078.355.355 0 0 0-.09.206h.508zm1.267.608a.618.618 0 0 1-.313.076.528.528 0 0 1-.396-.153.542.542 0 0 1-.15-.396c0-.182.053-.329.161-.438a.578.578 0 0 1 .433-.165c.1 0 .189.018.266.053v.231a.408.408 0 0 0-.245-.086.338.338 0 0 0-.259.108.388.388 0 0 0-.102.28.37.37 0 0 0 .095.27.337.337 0 0 0 .256.098c.09 0 .174-.031.254-.095v.217zm.735.076a.542.542 0 0 1-.406-.154.554.554 0 0 1-.153-.41c0-.184.053-.328.16-.432a.579.579 0 0 1 .426-.156c.172 0 .306.05.402.151.097.1.145.241.145.421a.578.578 0 0 1-.156.422.558.558 0 0 1-.418.158zm.012-.954a.283.283 0 0 0-.23.103.428.428 0 0 0-.086.28c0 .116.028.208.086.274a.29.29 0 0 0 .23.099.277.277 0 0 0 .227-.097c.052-.066.079-.158.079-.28s-.027-.214-.079-.28a.276.276 0 0 0-.227-.099zm2.461.928h-.249v-.6a.474.474 0 0 0-.05-.25c-.031-.051-.086-.078-.164-.078-.065 0-.12.033-.166.098a.403.403 0 0 0-.068.235v.595h-.25v-.62c0-.205-.073-.308-.218-.308-.067 0-.123.031-.166.094a.402.402 0 0 0-.065.24v.594h-.25v-1.1h.25v.174h.005a.38.38 0 0 1 .347-.2.324.324 0 0 1 .316.227.392.392 0 0 1 .365-.227c.242 0 .363.15.363.448v.678zm1.951 0h-.249v-.6a.49.49 0 0 0-.049-.25c-.032-.051-.087-.078-.165-.078-.066 0-.12.033-.166.098a.406.406 0 0 0-.068.235v.595h-.25v-.62c0-.205-.073-.308-.218-.308-.067 0-.122.031-.167.094a.405.405 0 0 0-.064.24v.594h-.25v-1.1h.25v.174h.005a.38.38 0 0 1 .346-.2.325.325 0 0 1 .317.227.392.392 0 0 1 .365-.227c.242 0 .363.15.363.448v.678zm1.237-.483h-.75c.002.102.034.181.093.237.06.054.143.083.248.083a.548.548 0 0 0 .323-.106v.2a.732.732 0 0 1-.398.095.49.49 0 0 1-.38-.15c-.094-.1-.139-.24-.139-.422 0-.171.05-.31.152-.419.1-.107.227-.161.378-.161s.266.048.35.144c.081.098.122.232.122.404v.095zm-.24-.175c0-.09-.023-.16-.065-.21a.21.21 0 0 0-.172-.074.245.245 0 0 0-.182.078.369.369 0 0 0-.092.206h.51zm1.458.658h-.249v-.62c0-.205-.073-.309-.218-.309a.239.239 0 0 0-.189.086.322.322 0 0 0-.074.216v.627h-.25v-1.1h.25v.182h.005a.393.393 0 0 1 .356-.208c.121 0 .211.038.275.116.063.077.094.19.094.337v.673zm1.305 0h-.249v-.187h-.004a.398.398 0 0 1-.371.213.396.396 0 0 1-.324-.148c-.082-.098-.122-.233-.122-.402 0-.182.045-.328.134-.438.09-.11.21-.164.36-.164.148 0 .256.06.323.178h.004v-.682h.249v1.63zm-.246-.503v-.144c0-.079-.026-.144-.076-.199s-.115-.082-.194-.082a.263.263 0 0 0-.22.105.462.462 0 0 0-.08.289c0 .112.025.2.077.265.051.065.12.097.207.097a.263.263 0 0 0 .208-.093.365.365 0 0 0 .078-.238zm1.504.02h-.75c.004.102.035.181.094.237a.357.357 0 0 0 .248.083.546.546 0 0 0 .323-.106v.2a.736.736 0 0 1-.399.095.494.494 0 0 1-.38-.15c-.092-.1-.138-.24-.138-.422 0-.171.05-.31.152-.42a.499.499 0 0 1 .377-.16c.152 0 .268.048.35.144.083.098.123.232.123.404v.095zm-.24-.175c0-.09-.022-.16-.064-.21s-.099-.074-.172-.074a.243.243 0 0 0-.181.078.356.356 0 0 0-.092.206h.509zm1.48.658h-.25v-.187h-.004a.399.399 0 0 1-.37.213.402.402 0 0 1-.327-.148c-.082-.098-.121-.233-.121-.402 0-.182.044-.328.135-.438.09-.11.21-.164.359-.164.148 0 .256.06.324.179h.004v-.683h.25v1.63zm-.247-.503v-.144c0-.079-.026-.144-.077-.199s-.115-.082-.193-.082c-.094 0-.168.035-.221.105s-.08.166-.08.289c0 .112.027.2.078.265a.25.25 0 0 0 .207.097.26.26 0 0 0 .207-.093.362.362 0 0 0 .079-.238zm1.43.345h-.003v.158h-.25v-1.63h.25v.723h.004a.409.409 0 0 1 .375-.22c.138 0 .248.05.326.148.079.099.119.23.119.397a.687.687 0 0 1-.134.442.435.435 0 0 1-.36.166.36.36 0 0 1-.326-.184zm-.005-.439v.138c0 .079.027.147.077.204a.256.256 0 0 0 .196.083.254.254 0 0 0 .217-.107.502.502 0 0 0 .078-.302.39.39 0 0 0-.073-.254.239.239 0 0 0-.2-.093.27.27 0 0 0-.213.095.35.35 0 0 0-.082.236zM35 6.634l-.497 1.278c-.104.228-.248.341-.435.341a.508.508 0 0 1-.132-.013v-.207c.04.011.076.018.108.018.095 0 .164-.045.209-.137l.074-.181-.437-1.099h.276l.262.801.02.08h.006c.003-.017.01-.043.019-.078l.275-.803h.252zm2.455 1.1h-.254v-.996c0-.082.005-.182.015-.301h-.004a.801.801 0 0 1-.043.145l-.461 1.153h-.176l-.459-1.144a.813.813 0 0 1-.043-.154h-.005c.007.062.011.163.011.303v.995H35.8V6.194h.36l.404 1.026c.032.08.051.138.06.176h.008c.025-.08.047-.14.063-.18l.414-1.022h.347v1.54zm.478-1.331a.147.147 0 0 1-.106-.04c-.03-.027-.045-.06-.045-.1s.016-.076.045-.103.064-.04.106-.04c.043 0 .078.012.107.04s.043.061.043.102a.133.133 0 0 1-.043.1.15.15 0 0 1-.107.04zm.123 1.332h-.25v-1.1h.25v1.1zm1.115-.05a.619.619 0 0 1-.314.076.528.528 0 0 1-.395-.153.536.536 0 0 1-.15-.396c0-.182.052-.329.162-.438a.575.575 0 0 1 .433-.165c.1 0 .188.018.264.053v.231a.402.402 0 0 0-.244-.086.341.341 0 0 0-.26.108.395.395 0 0 0-.102.28c0 .114.034.204.098.27a.329.329 0 0 0 .254.098.4.4 0 0 0 .254-.095v.217zm.887-.812a.208.208 0 0 0-.132-.036.222.222 0 0 0-.185.1.448.448 0 0 0-.074.272v.526h-.249v-1.1h.249v.226h.005a.386.386 0 0 1 .111-.18.254.254 0 0 1 .17-.065.22.22 0 0 1 .105.02v.237zm.644.888a.545.545 0 0 1-.408-.154.556.556 0 0 1-.152-.41c0-.184.052-.328.158-.432a.584.584 0 0 1 .43-.156c.17 0 .304.05.4.151.098.1.144.241.144.421a.581.581 0 0 1-.154.422.561.561 0 0 1-.418.158zm.01-.954c-.097 0-.174.034-.23.103s-.085.162-.085.28c0 .116.029.208.086.274a.289.289 0 0 0 .229.099c.1 0 .175-.032.228-.097.053-.066.078-.158.078-.28s-.025-.214-.078-.28a.277.277 0 0 0-.228-.099zm.748.895V7.47a.497.497 0 0 0 .309.107c.15 0 .224-.045.224-.134a.11.11 0 0 0-.018-.065.184.184 0 0 0-.052-.046.38.38 0 0 0-.077-.037c-.03-.01-.066-.022-.1-.036a1.203 1.203 0 0 1-.122-.057.326.326 0 0 1-.09-.068.234.234 0 0 1-.055-.087.305.305 0 0 1-.02-.113c0-.053.013-.1.04-.14a.321.321 0 0 1 .1-.102c.043-.027.09-.049.144-.063s.11-.02.167-.02c.102 0 .193.016.274.046v.219a.456.456 0 0 0-.354-.07.236.236 0 0 0-.063.026.138.138 0 0 0-.044.042.105.105 0 0 0-.013.052c0 .025.004.044.013.06.01.018.025.032.046.045.019.013.043.023.07.034s.06.022.096.033c.047.02.09.04.127.06.038.02.07.043.097.068s.045.055.06.09a.304.304 0 0 1 .022.117.255.255 0 0 1-.039.146.308.308 0 0 1-.103.103.432.432 0 0 1-.149.06.705.705 0 0 1-.177.021.765.765 0 0 1-.313-.06zm1.506.06a.548.548 0 0 1-.408-.155.565.565 0 0 1-.153-.41c0-.184.055-.328.16-.432a.584.584 0 0 1 .428-.156c.172 0 .306.05.402.151.096.1.143.241.143.421a.581.581 0 0 1-.154.422.563.563 0 0 1-.418.158zm.011-.955a.283.283 0 0 0-.23.103.423.423 0 0 0-.086.28.4.4 0 0 0 .088.274.287.287 0 0 0 .228.099.277.277 0 0 0 .227-.097c.053-.066.078-.158.078-.28s-.025-.214-.078-.28a.276.276 0 0 0-.227-.099zm1.4-.499a.225.225 0 0 0-.113-.028c-.12 0-.181.068-.181.205v.15h.256v.195h-.255v.905h-.249V6.83h-.19v-.196h.19v-.178c0-.117.037-.207.112-.275.077-.067.171-.1.286-.1.063 0 .11.006.145.02v.207zm.76 1.416a.43.43 0 0 1-.193.036c-.214 0-.322-.102-.322-.307V6.83h-.183v-.196h.183V6.38l.251-.072v.326h.264v.196h-.264v.55c0 .066.013.112.035.141.023.027.064.041.12.041a.174.174 0 0 0 .109-.036v.198z"/><g><path fill="#2D2C2C" d="M17.129 11.1h.672v1.526h1.747V11.1h.672v3.839h-.672v-1.731H17.8v1.731h-.672V11.1zm4.29 2.607c0 .109.015.212.045.313.031.1.077.186.138.263a.672.672 0 0 0 .564.247.74.74 0 0 0 .433-.115.692.692 0 0 0 .245-.347h.58a1.164 1.164 0 0 1-.825.885c-.138.04-.283.06-.433.06-.218 0-.412-.035-.58-.107a1.193 1.193 0 0 1-.428-.301 1.29 1.29 0 0 1-.264-.462 1.898 1.898 0 0 1 .006-1.154c.063-.177.152-.332.27-.467a1.266 1.266 0 0 1 .98-.438c.219 0 .415.045.589.137s.318.212.432.363c.115.15.199.323.25.518.053.196.066.398.04.606H21.42zm1.43-.403a1.003 1.003 0 0 0-.062-.28.707.707 0 0 0-.355-.394.73.73 0 0 0-.575-.005.658.658 0 0 0-.226.155.81.81 0 0 0-.212.524h1.43zm1.097-2.204h.613v3.839h-.613V11.1zm1.005 1.059h.666l.705 2.134h.01l.678-2.134h.635l-.995 2.78h-.688l-1.01-2.78zm3.543 1.548c0 .109.016.212.045.313a.77.77 0 0 0 .139.263c.06.075.136.135.231.18.09.044.203.067.332.067.18 0 .323-.04.434-.115a.691.691 0 0 0 .245-.347h.58c-.033.15-.088.284-.166.402a1.177 1.177 0 0 1-.66.483c-.137.04-.283.06-.433.06-.218 0-.41-.035-.58-.107a1.197 1.197 0 0 1-.69-.763c-.06-.18-.09-.377-.09-.59 0-.199.031-.386.095-.564a1.41 1.41 0 0 1 .268-.467 1.273 1.273 0 0 1 .98-.438c.22 0 .417.045.59.137s.317.212.432.363c.116.15.2.323.252.518.05.196.065.398.04.606h-2.044zm1.43-.403a.987.987 0 0 0-.06-.28.734.734 0 0 0-.356-.395.73.73 0 0 0-.576-.005.666.666 0 0 0-.226.156.784.784 0 0 0-.212.524h1.43zm.799-1.145h.464v-.833h.614v.833h.553v.457H31.8V14.1c0 .065.002.12.006.166a.32.32 0 0 0 .039.12.166.166 0 0 0 .088.07.43.43 0 0 0 .162.026l.129-.003a.734.734 0 0 0 .129-.019v.473l-.198.022a1.92 1.92 0 0 1-.199.01c-.163 0-.293-.015-.39-.045a.526.526 0 0 1-.232-.135.45.45 0 0 1-.112-.223 1.64 1.64 0 0 1-.036-.306v-1.64h-.464v-.457zM32.81 11.1h.612v.58h-.611v-.58zm0 1.059h.612v2.78h-.611v-2.78zm3.157.93a.575.575 0 0 0-.206-.39.682.682 0 0 0-.429-.131.867.867 0 0 0-.252.04.608.608 0 0 0-.248.15.845.845 0 0 0-.186.307c-.051.13-.078.302-.078.513 0 .115.015.23.041.343.028.117.07.218.13.308a.65.65 0 0 0 .568.3.62.62 0 0 0 .443-.166c.117-.11.187-.267.217-.468h.613c-.058.362-.194.64-.411.831-.218.192-.505.287-.862.287-.22 0-.412-.036-.58-.11s-.307-.173-.42-.3c-.116-.128-.202-.28-.262-.455s-.088-.366-.088-.57c0-.207.028-.403.085-.586.058-.182.145-.341.259-.475a1.19 1.19 0 0 1 .427-.317c.172-.077.37-.116.6-.116.16 0 .313.021.46.061.145.042.273.104.386.186a1.004 1.004 0 0 1 .406.758h-.613zm3.441 1.23c0 .076.01.13.03.163.02.032.058.048.115.048h.065a.448.448 0 0 0 .087-.01v.424c-.023.008-.05.015-.084.024a1.994 1.994 0 0 1-.213.04 1.256 1.256 0 0 1-.092.005.593.593 0 0 1-.311-.074c-.083-.05-.137-.139-.162-.264-.121.119-.272.204-.449.258s-.348.08-.513.08a1.26 1.26 0 0 1-.36-.05.93.93 0 0 1-.304-.151.715.715 0 0 1-.21-.253.771.771 0 0 1-.077-.357c0-.172.03-.312.093-.42a.715.715 0 0 1 .248-.252 1.11 1.11 0 0 1 .344-.131c.127-.027.254-.049.385-.063.111-.021.217-.037.317-.046.1-.008.188-.023.267-.044a.409.409 0 0 0 .182-.101c.043-.044.067-.111.067-.201 0-.08-.02-.144-.057-.194a.373.373 0 0 0-.14-.116c-.054-.026-.116-.045-.185-.054s-.133-.012-.193-.012a.766.766 0 0 0-.426.107c-.111.071-.172.184-.187.333h-.612a.914.914 0 0 1 .127-.446.9.9 0 0 1 .288-.284c.116-.072.25-.122.396-.152.146-.028.298-.043.451-.043.137 0 .27.015.403.043a1.2 1.2 0 0 1 .359.14c.105.064.19.148.255.25a.692.692 0 0 1 .096.374v1.43zm-.612-.774a.745.745 0 0 1-.345.112 4.841 4.841 0 0 0-.408.055c-.066.011-.129.027-.189.046a.578.578 0 0 0-.16.081.346.346 0 0 0-.111.134.456.456 0 0 0-.04.202.25.25 0 0 0 .059.172c.039.046.086.084.142.11a.655.655 0 0 0 .183.057 1.009 1.009 0 0 0 .4-.01c.08-.018.154-.05.224-.092s.128-.098.175-.164a.42.42 0 0 0 .07-.246v-.457zm2.826-2.445h.71l1.752 2.828h.01V11.1h.64v3.839h-.709l-1.748-2.823h-.015v2.823h-.64V11.1zm4.302 2.607c0 .109.015.212.045.313a.68.68 0 0 0 .703.51c.18 0 .322-.04.431-.115a.69.69 0 0 0 .244-.347h.583c-.033.15-.088.284-.168.402-.079.12-.173.219-.284.299a1.252 1.252 0 0 1-.375.184c-.137.04-.28.06-.431.06-.22 0-.413-.035-.58-.107a1.204 1.204 0 0 1-.693-.763 1.869 1.869 0 0 1 .005-1.154c.065-.177.152-.332.27-.467.116-.135.256-.241.423-.32.163-.08.35-.118.557-.118.22 0 .416.045.588.137.175.092.32.212.434.363.117.15.199.323.25.518.052.196.066.398.04.606h-2.042zm1.43-.403a1.056 1.056 0 0 0-.061-.28.703.703 0 0 0-.356-.394.734.734 0 0 0-.575-.005.652.652 0 0 0-.225.155.73.73 0 0 0-.15.234.789.789 0 0 0-.063.29h1.43zm3.521 1.635h-.602v-.388h-.011a.84.84 0 0 1-.335.336.912.912 0 0 1-.456.126c-.364 0-.63-.09-.791-.27-.163-.182-.246-.455-.246-.822V12.16h.614v1.705c0 .243.047.415.139.515.092.101.225.15.393.15.129 0 .236-.019.321-.059a.552.552 0 0 0 .21-.158.61.61 0 0 0 .117-.238 1.29 1.29 0 0 0 .034-.302v-1.613h.613v2.78zm1.123-1.232c0 .109.015.212.047.313.03.1.075.186.137.263.06.075.137.135.232.18a.765.765 0 0 0 .331.067c.18 0 .324-.04.435-.115a.695.695 0 0 0 .244-.347h.58a1.144 1.144 0 0 1-.451.701 1.253 1.253 0 0 1-.373.184c-.138.04-.283.06-.435.06-.218 0-.411-.035-.58-.107a1.197 1.197 0 0 1-.427-.301 1.276 1.276 0 0 1-.264-.462 1.898 1.898 0 0 1-.088-.59c0-.199.032-.386.094-.564.063-.177.152-.332.269-.467a1.269 1.269 0 0 1 .981-.438c.217 0 .416.045.588.137.174.092.319.212.433.363.116.15.198.323.25.518.052.196.066.398.04.606h-2.043zm1.43-.403a.987.987 0 0 0-.06-.28.699.699 0 0 0-.355-.394.738.738 0 0 0-.575-.005.652.652 0 0 0-.226.155c-.063.066-.114.144-.151.234s-.058.186-.063.29h1.43z"/></g><g><path fill="#2D2C2C" d="M17.129 16.736h.373l.417 1.186h.004l.408-1.186h.368v1.514h-.252v-1.168h-.004l-.42 1.168h-.218l-.42-1.168h-.003v1.168h-.253v-1.514zm2.77 1.27c0 .031.005.05.013.062.008.014.023.02.045.02h.025c.01 0 .021 0 .035-.004v.17c-.01.002-.02.006-.034.006l-.04.011a4.618 4.618 0 0 1-.044.006.259.259 0 0 1-.159-.027.153.153 0 0 1-.063-.103.442.442 0 0 1-.177.101.755.755 0 0 1-.201.031.45.45 0 0 1-.262-.078.292.292 0 0 1-.114-.242c0-.064.013-.121.037-.164a.265.265 0 0 1 .098-.1.383.383 0 0 1 .135-.052c.051-.01.101-.018.152-.024.044-.01.085-.015.125-.021a.553.553 0 0 0 .105-.014.207.207 0 0 0 .072-.04c.018-.02.026-.044.026-.079a.133.133 0 0 0-.021-.078.17.17 0 0 0-.056-.045.268.268 0 0 0-.073-.021c-.027-.004-.052-.004-.077-.004a.312.312 0 0 0-.167.04.164.164 0 0 0-.074.132h-.242a.362.362 0 0 1 .051-.174.36.36 0 0 1 .114-.115.484.484 0 0 1 .155-.057.902.902 0 0 1 .178-.018c.054 0 .107.006.16.018.051.01.098.03.14.053a.303.303 0 0 1 .1.101.26.26 0 0 1 .039.147v.562zm-.24-.305a.343.343 0 0 1-.136.045 2.233 2.233 0 0 0-.161.02.347.347 0 0 0-.075.02.294.294 0 0 0-.063.028.147.147 0 0 0-.043.055.173.173 0 0 0-.016.08c0 .026.007.051.023.069a.237.237 0 0 0 .057.043.215.215 0 0 0 .072.021.358.358 0 0 0 .245-.04.231.231 0 0 0 .069-.065.16.16 0 0 0 .028-.096v-.18zm1.241-.18a.23.23 0 0 0-.08-.154.275.275 0 0 0-.17-.05.31.31 0 0 0-.1.015.22.22 0 0 0-.096.059.322.322 0 0 0-.075.123.555.555 0 0 0-.03.2.62.62 0 0 0 .016.134c.01.048.028.088.051.123a.293.293 0 0 0 .09.086c.037.021.081.03.134.03.07 0 .129-.02.175-.064a.314.314 0 0 0 .085-.183h.242a.538.538 0 0 1-.162.328.502.502 0 0 1-.34.111.582.582 0 0 1-.227-.043.472.472 0 0 1-.27-.299.774.774 0 0 1-.001-.455.517.517 0 0 1 .102-.185.44.44 0 0 1 .169-.127.582.582 0 0 1 .235-.045.504.504 0 0 1 .334.098.403.403 0 0 1 .16.299H20.9zm1.706-.82c.113 0 .214.022.304.063a.716.716 0 0 1 .37.424.94.94 0 0 1 0 .61.76.76 0 0 1-.142.253c-.062.076-.138.13-.228.172s-.191.062-.304.062a.72.72 0 0 1-.304-.062.61.61 0 0 1-.228-.172.743.743 0 0 1-.143-.252.915.915 0 0 1-.05-.305c0-.11.017-.21.05-.306a.706.706 0 0 1 .371-.424.72.72 0 0 1 .304-.063zm0 .217c-.08 0-.15.018-.209.047a.432.432 0 0 0-.143.133.58.58 0 0 0-.082.183c-.018.069-.025.14-.025.213s.007.145.025.211a.625.625 0 0 0 .082.188.444.444 0 0 0 .143.128c.06.03.128.047.209.047.081 0 .15-.017.208-.047a.425.425 0 0 0 .144-.128.599.599 0 0 0 .081-.188.855.855 0 0 0 0-.424.56.56 0 0 0-.081-.183.417.417 0 0 0-.143-.133.458.458 0 0 0-.209-.047zm1.14.828c0 .057.01.106.03.15a.3.3 0 0 0 .205.154.598.598 0 0 0 .297-.001.246.246 0 0 0 .1-.053.176.176 0 0 0 .055-.072.215.215 0 0 0 .017-.082c0-.059-.014-.102-.04-.129a.275.275 0 0 0-.085-.06 3.897 3.897 0 0 0-.188-.057c-.072-.016-.159-.04-.264-.067a.456.456 0 0 1-.266-.158.359.359 0 0 1-.068-.226.388.388 0 0 1 .173-.336.593.593 0 0 1 .178-.082.786.786 0 0 1 .424.006c.07.02.132.05.186.091a.434.434 0 0 1 .172.358h-.265c-.006-.096-.04-.164-.1-.205a.39.39 0 0 0-.226-.059.535.535 0 0 0-.095.008.233.233 0 0 0-.09.033.165.165 0 0 0-.066.06.157.157 0 0 0-.027.094c0 .055.017.098.05.127a.288.288 0 0 0 .131.069c.004.004.027.008.066.017.04.012.082.024.13.036l.142.037c.045.011.078.023.098.027.05.016.092.037.13.063.035.029.067.06.092.091a.39.39 0 0 1 .072.23.419.419 0 0 1-.188.366.613.613 0 0 1-.193.084.985.985 0 0 1-.464-.004.593.593 0 0 1-.199-.1.48.48 0 0 1-.136-.168.56.56 0 0 1-.052-.242h.264zm1.657-1.01h.315l.343.535.359-.535h.297l-.501.73.536.784h-.321l-.378-.578-.383.578h-.303l.536-.783-.5-.73zm1.921 0h.276l.379 1.2h.003l.39-1.2h.269l-.518 1.514h-.295l-.504-1.514zm2.234 1.27c0 .031.005.05.01.062.01.014.025.02.047.02h.025c.01 0 .022 0 .035-.004v.17c-.009.002-.02.006-.032.006l-.043.011-.042.006c-.014.002-.027.002-.037.002a.259.259 0 0 1-.123-.029.154.154 0 0 1-.064-.103.435.435 0 0 1-.176.101.756.756 0 0 1-.203.031.453.453 0 0 1-.262-.078.339.339 0 0 1-.082-.1.333.333 0 0 1-.03-.142c0-.064.013-.121.037-.164s.057-.076.097-.1c.04-.025.087-.043.137-.052s.1-.018.152-.024c.043-.01.084-.015.123-.021a.517.517 0 0 0 .104-.014.2.2 0 0 0 .074-.04.112.112 0 0 0 .026-.079.13.13 0 0 0-.022-.078.161.161 0 0 0-.055-.045.297.297 0 0 0-.074-.021c-.028-.004-.053-.004-.077-.004-.066 0-.123.013-.167.04s-.068.073-.073.132h-.242a.351.351 0 0 1 .164-.29.478.478 0 0 1 .156-.056.893.893 0 0 1 .178-.018c.053 0 .107.006.158.018.053.01.1.03.14.053a.275.275 0 0 1 .1.101.25.25 0 0 1 .04.147v.562zm-.242-.305a.348.348 0 0 1-.136.045 2.25 2.25 0 0 0-.16.02.336.336 0 0 0-.075.02.256.256 0 0 0-.063.028c-.019.016-.032.032-.043.055s-.017.049-.017.08c0 .026.008.051.024.069a.276.276 0 0 0 .055.043.221.221 0 0 0 .073.021.466.466 0 0 0 .158-.004.254.254 0 0 0 .157-.102.163.163 0 0 0 .027-.095v-.18zm.686.197c.007.073.033.12.08.149.046.03.1.04.168.04l.075-.003a.298.298 0 0 0 .083-.022.187.187 0 0 0 .063-.043.098.098 0 0 0 .02-.074.114.114 0 0 0-.032-.078c-.023-.02-.049-.035-.082-.047s-.07-.021-.113-.03c-.044-.007-.086-.019-.13-.028-.046-.008-.088-.022-.128-.034a.442.442 0 0 1-.113-.058.3.3 0 0 1-.082-.094.307.307 0 0 1-.028-.14c0-.057.016-.106.043-.147s.067-.072.11-.098a.415.415 0 0 1 .148-.05.725.725 0 0 1 .318.002.45.45 0 0 1 .14.056.349.349 0 0 1 .157.264h-.253c-.011-.059-.038-.1-.079-.118a.314.314 0 0 0-.144-.029c-.016 0-.037 0-.06.002-.022.004-.046.008-.065.018a.15.15 0 0 0-.053.033.086.086 0 0 0-.022.059.09.09 0 0 0 .033.072.21.21 0 0 0 .08.045.707.707 0 0 0 .114.03c.041.01.085.016.13.028.042.01.087.022.13.035a.41.41 0 0 1 .114.059.29.29 0 0 1 .08.092c.02.035.03.08.03.135a.29.29 0 0 1-.044.164.33.33 0 0 1-.116.111.527.527 0 0 1-.157.06.84.84 0 0 1-.364-.002.532.532 0 0 1-.151-.072.355.355 0 0 1-.142-.287h.242zm.806-.744h.184v-.328h.24v.328h.22v.182h-.22v.584c0 .025.001.049.004.064.002.02.007.036.015.047.007.014.019.02.035.03a.175.175 0 0 0 .064.007h.05l.051-.007v.187c-.027.002-.053.006-.08.01-.023.002-.05.002-.078.002-.062 0-.113-.004-.152-.018s-.07-.029-.092-.052a.17.17 0 0 1-.044-.088.523.523 0 0 1-.013-.123v-.643h-.184v-.182zm.822-.418h.243v1.514h-.243v-1.514zm.383.418h.266l.285.819h.004l.278-.819h.253l-.427 1.156-.059.143a.363.363 0 0 1-.172.201.373.373 0 0 1-.156.03c-.056 0-.113-.004-.168-.01v-.207c.02.002.038.008.058.01a.265.265 0 0 0 .126-.004.107.107 0 0 0 .046-.031.235.235 0 0 0 .032-.05c.008-.017.013-.038.021-.062l.029-.084-.416-1.092zm1.829-.418h.263v.883c0 .05.002.102.007.152.005.055.02.102.042.143.026.041.06.076.106.103.049.028.115.04.203.04.085 0 .152-.012.2-.04s.081-.062.105-.103.037-.088.043-.143a1.99 1.99 0 0 0 .006-.152v-.883h.266v.97a.626.626 0 0 1-.046.253.464.464 0 0 1-.125.182.555.555 0 0 1-.197.109.85.85 0 0 1-.252.035.876.876 0 0 1-.257-.035.531.531 0 0 1-.194-.11.45.45 0 0 1-.127-.181.664.664 0 0 1-.043-.254v-.969zm1.694 1.162c.005.073.032.12.08.149s.1.04.167.04l.077-.003a.299.299 0 0 0 .082-.022.187.187 0 0 0 .063-.043c.016-.017.022-.045.02-.074a.106.106 0 0 0-.033-.078.238.238 0 0 0-.08-.047c-.034-.012-.072-.021-.114-.03l-.13-.028c-.045-.008-.088-.022-.13-.034a.489.489 0 0 1-.111-.058.3.3 0 0 1-.082-.094.307.307 0 0 1-.028-.14c0-.057.015-.106.042-.147a.364.364 0 0 1 .11-.098.42.42 0 0 1 .149-.05.75.75 0 0 1 .32.002c.05.011.096.03.138.056a.32.32 0 0 1 .103.107c.03.043.045.092.052.157h-.25c-.012-.059-.039-.1-.08-.118a.305.305 0 0 0-.143-.029c-.018 0-.038 0-.06.002a.255.255 0 0 0-.067.018.14.14 0 0 0-.052.033.09.09 0 0 0-.02.059c0 .03.01.054.03.072.02.02.047.033.08.045s.071.023.114.03c.042.01.086.016.13.028.044.01.089.022.13.035s.08.034.115.059a.254.254 0 0 1 .078.092c.023.035.032.08.032.135a.282.282 0 0 1-.045.164.336.336 0 0 1-.114.111.532.532 0 0 1-.158.06.855.855 0 0 1-.365-.002.545.545 0 0 1-.152-.072.375.375 0 0 1-.102-.119.382.382 0 0 1-.04-.168h.244zm1.106-.132c0 .04.004.08.017.123.013.04.03.072.054.101.025.031.055.055.092.073s.08.025.13.025c.07 0 .128-.014.17-.045a.259.259 0 0 0 .098-.137h.229a.411.411 0 0 1-.066.159.434.434 0 0 1-.26.19.64.64 0 0 1-.398-.018.488.488 0 0 1-.272-.3.748.748 0 0 1 0-.455.604.604 0 0 1 .106-.183.497.497 0 0 1 .388-.174c.086 0 .164.018.232.053a.55.55 0 0 1 .17.142c.045.06.078.13.1.205.02.079.025.159.014.24h-.804zm.563-.16a.355.355 0 0 0-.08-.202.24.24 0 0 0-.084-.064.232.232 0 0 0-.111-.024.273.273 0 0 0-.264.174.294.294 0 0 0-.024.115h.563zm1.457.644h-.227v-.148h-.005a.283.283 0 0 1-.142.136.52.52 0 0 1-.424-.006.395.395 0 0 1-.159-.123.505.505 0 0 1-.095-.185.764.764 0 0 1-.034-.229c0-.101.015-.183.042-.26a.514.514 0 0 1 .108-.173.387.387 0 0 1 .153-.106.522.522 0 0 1 .379.008c.033.014.062.031.09.055s.051.049.068.078h.004v-.56h.242v1.513zm-.843-.535c0 .045.006.09.018.135.013.046.03.087.055.123a.311.311 0 0 0 .094.084c.04.021.084.03.137.03s.1-.009.139-.032.07-.051.093-.088a.502.502 0 0 0 .074-.266.443.443 0 0 0-.081-.285.267.267 0 0 0-.221-.1.271.271 0 0 0-.143.033.297.297 0 0 0-.095.092.385.385 0 0 0-.054.127.715.715 0 0 0-.016.147zm1.728-.979h1.045v.229h-.78v.396h.685v.217h-.684v.672h-.266v-1.514zm1.726 1.543a.622.622 0 0 1-.234-.043.493.493 0 0 1-.281-.3.65.65 0 0 1-.037-.235c0-.082.01-.16.037-.23a.521.521 0 0 1 .107-.184.468.468 0 0 1 .174-.119.624.624 0 0 1 .234-.043.63.63 0 0 1 .235.043.502.502 0 0 1 .174.12.569.569 0 0 1 .107.183c.024.07.037.148.037.23a.72.72 0 0 1-.037.235.581.581 0 0 1-.107.181.529.529 0 0 1-.409.162zm0-.191a.272.272 0 0 0 .237-.121.373.373 0 0 0 .056-.123.584.584 0 0 0 0-.283.403.403 0 0 0-.056-.125.276.276 0 0 0-.236-.12.262.262 0 0 0-.14.034.339.339 0 0 0-.099.086.425.425 0 0 0-.055.125.537.537 0 0 0 0 .283c.012.045.03.088.055.123a.295.295 0 0 0 .099.088.262.262 0 0 0 .14.033zm.752-.934h.23v.162l.005.002a.392.392 0 0 1 .34-.193c.12 0 .214.03.285.094.07.06.104.154.104.28v.751h-.241v-.69c-.004-.083-.021-.148-.056-.187-.034-.037-.087-.057-.159-.057a.258.258 0 0 0-.111.022.231.231 0 0 0-.082.06.329.329 0 0 0-.053.092.354.354 0 0 0-.018.114v.646h-.244v-1.096zm1.108 0h.182v-.328h.242v.328h.218v.182h-.218v.584c0 .025 0 .049.003.064.001.02.007.036.014.047.008.014.02.02.035.03a.195.195 0 0 0 .065.007h.05l.051-.007v.187c-.027.002-.052.006-.08.01-.024.002-.05.002-.076.002a.484.484 0 0 1-.154-.018.22.22 0 0 1-.092-.052.18.18 0 0 1-.045-.088.656.656 0 0 1-.013-.123v-.643h-.182v-.182z"/></g><g><path fill="#2D2C2C" d="M18.589 26.104c-.252 0-.47-.038-.655-.116a1.224 1.224 0 0 1-.456-.318 1.293 1.293 0 0 1-.263-.48 1.997 1.997 0 0 1-.086-.602v-2.414h.537v2.353c0 .385.086.668.256.838.17.176.392.264.667.264.136 0 .262-.024.374-.067.114-.04.21-.107.292-.197s.144-.201.189-.342c.044-.136.066-.3.066-.496v-2.353h.538v2.414c0 .217-.028.416-.085.601a1.293 1.293 0 0 1-.267.48 1.25 1.25 0 0 1-.455.32 1.659 1.659 0 0 1-.652.114zm2.87-2.842a1.415 1.415 0 0 1 .727-.194c.207 0 .391.037.552.11.161.076.298.18.408.312.112.133.196.291.253.477s.086.389.086.611c0 .235-.034.444-.103.629a1.29 1.29 0 0 1-.291.475c-.126.132-.278.23-.455.3-.179.07-.378.106-.6.106-.24 0-.454-.018-.639-.05a4.407 4.407 0 0 1-.455-.1V21.8l.517-.09v1.55zm0 2.31c.051.014.124.03.219.041.095.014.212.02.353.02.277 0 .5-.092.665-.276.167-.181.25-.443.25-.779 0-.146-.014-.287-.045-.416a.968.968 0 0 0-.143-.338.694.694 0 0 0-.258-.219.821.821 0 0 0-.38-.08c-.141 0-.27.022-.39.073a1.063 1.063 0 0 0-.271.148v1.826zm5.053.366c-.12.029-.276.062-.47.095s-.42.051-.674.051a1.4 1.4 0 0 1-.561-.1.882.882 0 0 1-.367-.273 1.102 1.102 0 0 1-.2-.42 2.138 2.138 0 0 1-.06-.533v-1.623h.515v1.508c0 .353.056.605.167.758.111.15.298.228.561.228.055 0 .113-.002.172-.008l.167-.011.14-.018a.423.423 0 0 0 .093-.02v-2.437h.517v2.802zm.886-2.72a4.364 4.364 0 0 1 1.15-.143c.23.001.42.03.573.095.15.063.273.158.362.272.09.117.156.255.19.42.038.162.057.341.057.539v1.62h-.516v-1.51c0-.177-.013-.327-.034-.454a.802.802 0 0 0-.122-.307.471.471 0 0 0-.222-.168.97.97 0 0 0-.344-.053c-.055 0-.112.002-.172.006-.06.002-.115.008-.169.014-.054.004-.102.014-.144.02s-.074.011-.092.015v2.438h-.517v-2.803zm3.67-.083h1.094v.433h-1.094v1.33c0 .145.011.266.036.36.02.098.054.17.097.22a.39.39 0 0 0 .167.118c.066.02.145.033.235.033.155 0 .28-.018.374-.055.093-.035.16-.062.197-.074l.098.426c-.05.027-.142.059-.27.102-.13.035-.277.056-.443.056-.197 0-.36-.025-.488-.074a.712.712 0 0 1-.307-.229c-.078-.1-.131-.22-.164-.367s-.049-.318-.049-.508V22.33l.518-.088v.893zm4.047 2.802c-.117.03-.273.063-.47.096a4.02 4.02 0 0 1-.674.051 1.4 1.4 0 0 1-.56-.1.877.877 0 0 1-.366-.273 1.06 1.06 0 0 1-.2-.42 2.158 2.158 0 0 1-.063-.533v-1.623h.517v1.508c0 .353.057.605.168.758.11.15.297.228.559.228a17.651 17.651 0 0 0 .342-.02 6.11 6.11 0 0 0 .14-.017.453.453 0 0 0 .092-.02v-2.437h.515v2.802z"/></g><g><path fill="#2D2C2C" d="M17.724 29.365a.682.682 0 0 1-.266-.047.498.498 0 0 1-.186-.123.536.536 0 0 1-.108-.193.764.764 0 0 1-.035-.238v-.95h.278v.922c0 .069.007.127.023.178a.332.332 0 0 0 .064.12c.03.028.063.052.102.066.038.015.082.023.13.023s.092-.008.132-.023a.266.266 0 0 0 .101-.067.35.35 0 0 0 .066-.119.64.64 0 0 0 .023-.178v-.922h.277v.95a.75.75 0 0 1-.036.238.548.548 0 0 1-.109.193.495.495 0 0 1-.187.123.708.708 0 0 1-.27.047zm1.971-.603a.682.682 0 0 1-.04.246.489.489 0 0 1-.298.31.675.675 0 0 1-.243.043 1.73 1.73 0 0 1-.252-.02 1.362 1.362 0 0 1-.197-.046V27.68l.264-.047v.594a.487.487 0 0 1 .113-.043.45.45 0 0 1 .148-.02.451.451 0 0 1 .374.164.56.56 0 0 1 .097.188.813.813 0 0 1 .034.246zm-.27-.006a.464.464 0 0 0-.068-.266c-.044-.066-.115-.1-.211-.1a.425.425 0 0 0-.123.02.43.43 0 0 0-.094.045v.658c.02.004.044.01.073.014.031.004.066.004.11.004a.295.295 0 0 0 .23-.098.427.427 0 0 0 .083-.277zm1.482.539a2.02 2.02 0 0 1-.199.045c-.081.011-.171.02-.27.02a.576.576 0 0 1-.23-.042.394.394 0 0 1-.228-.277.893.893 0 0 1-.024-.215v-.639h.264v.6c0 .123.018.211.054.264.035.05.098.078.187.078.032 0 .066 0 .102-.004a.452.452 0 0 0 .08-.012v-.926h.264v1.108zm.337-1.07c.051-.016.118-.03.2-.041.08-.016.171-.02.27-.02.095 0 .172.01.235.04a.334.334 0 0 1 .15.105.403.403 0 0 1 .078.166.916.916 0 0 1 .023.214v.643h-.264v-.602a.84.84 0 0 0-.013-.156.305.305 0 0 0-.038-.107.164.164 0 0 0-.075-.057.328.328 0 0 0-.115-.02.654.654 0 0 0-.105.009l-.081.01v.923h-.265v-1.107zm1.267-.338l.265-.045v.346h.406v.22h-.406v.467c0 .092.015.158.044.197.03.04.079.059.15.059a.601.601 0 0 0 .216-.045l.043.209a.867.867 0 0 1-.12.045.763.763 0 0 1-.175.02.557.557 0 0 1-.205-.034.296.296 0 0 1-.13-.098.363.363 0 0 1-.067-.148.886.886 0 0 1-.02-.203v-.99zm1.866 1.408a2.02 2.02 0 0 1-.198.045c-.082.011-.172.02-.27.02a.573.573 0 0 1-.23-.042.348.348 0 0 1-.15-.111.4.4 0 0 1-.08-.166.893.893 0 0 1-.023-.215v-.639h.264v.6c0 .123.018.211.054.264.036.05.098.078.188.078.031 0 .065 0 .101-.004a.475.475 0 0 0 .08-.012v-.926h.265v1.108zm1.228-.168c.099 0 .17-.018.217-.05a.169.169 0 0 0 .068-.143.193.193 0 0 0-.024-.096.253.253 0 0 0-.066-.07 1.239 1.239 0 0 0-.243-.111 1.313 1.313 0 0 1-.152-.065.48.48 0 0 1-.129-.08.435.435 0 0 1-.09-.123.4.4 0 0 1-.034-.168.4.4 0 0 1 .143-.325.6.6 0 0 1 .387-.117.84.84 0 0 1 .427.103l-.085.221a.715.715 0 0 0-.347-.084.283.283 0 0 0-.173.045.153.153 0 0 0-.063.13c0 .032.006.062.021.087a.204.204 0 0 0 .059.065.59.59 0 0 0 .09.052c.034.014.071.03.112.045.072.028.136.053.192.078a.614.614 0 0 1 .142.098c.039.04.068.082.089.133.02.049.03.11.03.181a.377.377 0 0 1-.144.319c-.099.076-.24.113-.427.113a.932.932 0 0 1-.172-.014 1.07 1.07 0 0 1-.137-.027l-.104-.035c-.03-.014-.053-.027-.07-.037l.081-.225a.784.784 0 0 0 .401.1zm1.735-.94a8.25 8.25 0 0 1-.41 1.182c-.03.066-.059.123-.09.17s-.065.082-.104.115c-.037.031-.08.053-.127.067a.56.56 0 0 1-.283.007.378.378 0 0 1-.09-.029l.047-.21c.053.019.106.029.156.029a.255.255 0 0 0 .162-.05.418.418 0 0 0 .102-.152 5.35 5.35 0 0 1-.24-.527 5.44 5.44 0 0 1-.206-.602h.282a5.34 5.34 0 0 0 .123.416c.025.075.05.149.08.221s.055.14.083.203c.046-.129.089-.267.131-.412.04-.15.077-.289.11-.427h.274zm.488.956c.07 0 .121-.008.153-.026s.048-.045.048-.088c0-.037-.016-.066-.05-.094a.76.76 0 0 0-.17-.08 2.01 2.01 0 0 1-.133-.056.433.433 0 0 1-.104-.069c-.029-.027-.052-.058-.069-.095s-.024-.084-.024-.137c0-.106.038-.188.115-.248a.503.503 0 0 1 .315-.092c.068 0 .132.008.194.018.06.013.106.027.137.037l-.048.215c-.03-.016-.067-.024-.112-.037a.745.745 0 0 0-.158-.016.26.26 0 0 0-.13.03.086.086 0 0 0-.052.081c0 .022.003.035.01.051.008.014.018.03.035.043.016.01.037.023.063.037.026.01.058.024.098.037.061.022.115.045.158.067.045.025.08.048.108.078a.26.26 0 0 1 .064.097c.011.036.02.079.02.131 0 .11-.042.192-.123.248s-.196.086-.347.086a.856.856 0 0 1-.371-.068l.045-.219c.04.016.086.031.14.045a.686.686 0 0 0 .188.024zm.7-1.256l.265-.045v.346h.408v.22h-.408v.467c0 .092.014.158.043.197s.08.059.15.059c.048 0 .09-.004.127-.016a.693.693 0 0 0 .09-.029l.043.209a.808.808 0 0 1-.12.045.75.75 0 0 1-.175.02c-.082 0-.15-.012-.205-.034s-.098-.055-.13-.098a.384.384 0 0 1-.068-.148.982.982 0 0 1-.02-.203v-.99zm.845.879c0-.102.014-.19.045-.266a.583.583 0 0 1 .12-.19.447.447 0 0 1 .169-.11.477.477 0 0 1 .197-.042.46.46 0 0 1 .37.15c.087.096.13.24.13.436v.047c0 .02-.002.035-.004.05h-.754a.3.3 0 0 0 .098.214c.058.05.14.076.25.076a.705.705 0 0 0 .176-.018c.053-.013.096-.025.125-.037l.037.217c-.015.006-.037.016-.06.022a.815.815 0 0 1-.086.025l-.108.014a.774.774 0 0 1-.117.007.667.667 0 0 1-.26-.046.493.493 0 0 1-.292-.313.758.758 0 0 1-.036-.236zm.768-.12a.31.31 0 0 0-.059-.187.16.16 0 0 0-.073-.057.204.204 0 0 0-.1-.021.213.213 0 0 0-.11.023c-.03.014-.057.035-.077.059s-.037.053-.05.086a.636.636 0 0 0-.023.097h.492zm1.197.084a.543.543 0 0 0-.045-.26c-.03-.052-.085-.08-.168-.08a.588.588 0 0 0-.096.008l-.078.01v.924h-.265v-1.107c.052-.016.119-.03.2-.041.083-.016.17-.02.263-.02.077 0 .142.008.192.03.052.019.092.048.127.081a.207.207 0 0 1 .061-.037.348.348 0 0 1 .082-.035.513.513 0 0 1 .202-.039c.089 0 .163.01.22.04a.3.3 0 0 1 .135.105.4.4 0 0 1 .068.166c.013.068.02.136.02.214v.643h-.266v-.602a.585.585 0 0 0-.043-.26c-.03-.052-.086-.08-.169-.08a.358.358 0 0 0-.206.063c.013.037.02.074.025.115s.007.086.007.131v.633h-.266v-.602zm3.049-.158c0 .131-.02.246-.06.344a.698.698 0 0 1-.175.244.718.718 0 0 1-.271.14 1.164 1.164 0 0 1-.352.05c-.06 0-.13-.004-.207-.006a1.318 1.318 0 0 1-.221-.034v-1.47c.07-.018.144-.03.223-.033.078-.004.148-.006.21-.006.126 0 .243.013.349.043a.756.756 0 0 1 .27.142.627.627 0 0 1 .173.239c.041.097.06.214.06.347zm-1.01.534a1.628 1.628 0 0 0 .17.004c.185 0 .323-.05.416-.143.09-.092.135-.225.135-.395 0-.172-.043-.304-.133-.396-.089-.092-.227-.137-.413-.137-.081 0-.14.002-.175.008v1.058zm1.235-.34c0-.102.016-.19.045-.266a.583.583 0 0 1 .12-.19.453.453 0 0 1 .171-.11.463.463 0 0 1 .196-.042c.159 0 .28.049.37.15.088.096.131.24.131.436v.047c0 .02-.002.035-.004.05h-.754c.006.093.039.163.097.214.057.05.14.076.25.076a.705.705 0 0 0 .176-.018c.054-.013.097-.025.126-.037l.036.217c-.015.006-.036.016-.06.022a.783.783 0 0 1-.088.025l-.107.014a.76.76 0 0 1-.116.007.669.669 0 0 1-.261-.046c-.076-.028-.137-.073-.185-.125s-.083-.114-.107-.188a.788.788 0 0 1-.036-.236zm.769-.12a.413.413 0 0 0-.014-.101.255.255 0 0 0-.047-.086.137.137 0 0 0-.072-.057.207.207 0 0 0-.1-.021.215.215 0 0 0-.109.023.257.257 0 0 0-.078.059.282.282 0 0 0-.049.086.546.546 0 0 0-.023.097h.492zm1.012-1.013a.677.677 0 0 1 .266.049l-.05.216c-.025-.011-.054-.02-.086-.029-.033-.006-.068-.01-.108-.01s-.077.006-.107.02a.175.175 0 0 0-.107.129.596.596 0 0 0-.01.103v.076h.417v.221h-.416v.924h-.266v-1.227a.5.5 0 0 1 .116-.347c.077-.08.194-.125.35-.125zm1.347 1.662c-.05.015-.117.03-.199.045-.082.011-.17.02-.268.02a.582.582 0 0 1-.233-.042.387.387 0 0 1-.227-.277.802.802 0 0 1-.024-.215v-.639h.264v.6c0 .123.017.211.054.264.036.05.098.078.187.078.032 0 .065 0 .1-.004.038-.002.063-.008.083-.012v-.926h.263v1.108zm.717-1.137c.088 0 .162.01.223.033a.364.364 0 0 1 .143.092c.036.04.062.088.075.143a.67.67 0 0 1 .024.185v.696c-.041.007-.102.02-.186.033-.082.01-.174.015-.279.015a.805.805 0 0 1-.187-.02.42.42 0 0 1-.146-.062.326.326 0 0 1-.093-.113.39.39 0 0 1-.034-.174c0-.066.012-.12.037-.166a.312.312 0 0 1 .105-.11.424.424 0 0 1 .151-.064.925.925 0 0 1 .182-.02c.028 0 .057.003.09.009.033.004.067.01.104.02v-.046a.43.43 0 0 0-.01-.088.236.236 0 0 0-.039-.072.152.152 0 0 0-.073-.049.268.268 0 0 0-.112-.017c-.06 0-.118.004-.168.011-.051.01-.093.018-.125.032l-.034-.217c.034-.008.083-.022.147-.033.064-.01.133-.018.205-.018zm.023.988a.903.903 0 0 0 .186-.013v-.295c-.015-.004-.035-.01-.064-.012a.64.64 0 0 0-.18 0 .185.185 0 0 0-.08.026.122.122 0 0 0-.059.047.16.16 0 0 0-.021.082c0 .06.018.105.058.128.04.026.094.037.16.037zm1.163.207a.754.754 0 0 1-.195-.025.303.303 0 0 1-.125-.07.243.243 0 0 1-.064-.111.59.59 0 0 1-.018-.15V27.68l.265-.047v1.312c0 .03.002.057.007.08.005.02.014.04.027.057.014.014.03.027.054.035a.541.541 0 0 0 .085.02l-.036.216zm.238-1.466l.264-.045v.346h.409v.22h-.409v.467c0 .092.015.158.044.197s.08.059.15.059a.645.645 0 0 0 .217-.045l.044.209a.834.834 0 0 1-.12.045.765.765 0 0 1-.175.02.56.56 0 0 1-.205-.034.27.27 0 0 1-.13-.098.361.361 0 0 1-.07-.148 1.056 1.056 0 0 1-.02-.203v-.99zm1.451 1.445v-1.518h.958v.235h-.683v.389h.608v.234h-.608v.66h-.275zm2.201-.572a.744.744 0 0 1-.037.244.59.59 0 0 1-.113.193.516.516 0 0 1-.174.121.563.563 0 0 1-.446 0 .539.539 0 0 1-.175-.12.583.583 0 0 1-.111-.194.697.697 0 0 1-.041-.244.7.7 0 0 1 .04-.246.565.565 0 0 1 .114-.192.471.471 0 0 1 .175-.119c.065-.031.14-.045.22-.045s.154.014.222.045a.461.461 0 0 1 .174.12.62.62 0 0 1 .152.437zm-.27 0a.438.438 0 0 0-.073-.27.237.237 0 0 0-.206-.101.238.238 0 0 0-.205.101c-.049.065-.072.155-.072.27s.023.205.072.273c.05.065.118.1.205.1a.245.245 0 0 0 .205-.1.459.459 0 0 0 .074-.273zm.544-.535c.051-.016.117-.03.2-.041.08-.016.17-.02.27-.02.094 0 .171.01.235.04a.339.339 0 0 1 .15.105.409.409 0 0 1 .078.166c.015.068.024.136.024.214v.643h-.266v-.602c0-.06-.004-.113-.012-.156s-.021-.078-.039-.107a.165.165 0 0 0-.074-.057.334.334 0 0 0-.115-.02.68.68 0 0 0-.106.009l-.08.01v.923h-.265v-1.107zm1.266-.338l.265-.045v.346h.408v.22h-.408v.467c0 .092.015.158.044.197.03.04.08.059.15.059a.59.59 0 0 0 .217-.045l.042.209a.82.82 0 0 1-.12.045.772.772 0 0 1-.174.02.55.55 0 0 1-.204-.034.29.29 0 0 1-.133-.098.416.416 0 0 1-.067-.148 1.056 1.056 0 0 1-.02-.203v-.99z"/></g><g opacity=".5"><path fill="#949292" d="M1.384.527v.61h-.169v-.61H1V.38h.598v.147h-.214zM2.268.38v.15H1.89v.157h.338v.144h-.338V.99h.388v.148h-.558V.38h.547zm.588 0h.203l-.236.366.256.391h-.206L2.71.89l-.16.248h-.204L2.602.75 2.364.38h.203l.144.225.145-.225zm.646.147v.61h-.168v-.61h-.215V.38h.598v.147h-.215zm1.239.105c0 .121-.05.2-.145.235l.192.27H4.58L4.412.896h-.117v.241h-.169V.38h.288c.117 0 .2.02.251.06s.076.103.076.192zm-.205.09c.022-.02.032-.049.032-.09 0-.04-.01-.068-.032-.084-.022-.014-.06-.022-.114-.022h-.127V.75h.123c.059 0 .098-.01.118-.03zM5.46.38v.15h-.377v.157h.339v.144h-.339V.99h.389v.148h-.557V.38h.545zm.692 0h.168v.757h-.168L5.79.664v.473h-.17V.38h.158l.372.488V.38zm.933.1c.072.066.108.158.108.275s-.035.211-.106.28c-.07.068-.177.102-.322.102h-.26V.38h.27c.134 0 .237.035.31.1zM6.96.93c.042-.039.063-.096.063-.17 0-.075-.021-.132-.063-.172-.041-.04-.105-.06-.191-.06h-.094v.46h.106C6.86.989 6.92.97 6.96.93zm.924-.55v.15h-.377v.157h.34v.144h-.34V.99h.39v.148h-.56V.38h.547zm.776.252c0 .121-.047.2-.143.235l.191.27H8.5L8.332.896h-.117v.241h-.169V.38h.288c.117 0 .201.02.251.06.05.04.075.103.075.192zm-.204.09c.022-.02.032-.049.032-.09 0-.04-.011-.068-.032-.084-.021-.014-.06-.022-.114-.022h-.127V.75h.123c.058 0 .098-.01.119-.03zM8.835.38h.169v.757h-.169V.38zm.884 0h.169v.757h-.169L9.357.664v.473h-.168V.38h.158l.371.488V.38zm.847.372h.17v.269a.4.4 0 0 1-.312.126.385.385 0 0 1-.393-.39c0-.112.038-.206.115-.28a.381.381 0 0 1 .278-.113.41.41 0 0 1 .282.107l-.087.126a.346.346 0 0 0-.093-.06.255.255 0 0 0-.092-.017.222.222 0 0 0-.163.065c-.044.044-.066.101-.066.172s.021.13.063.172.093.065.15.065c.06 0 .108-.012.148-.034V.752z"/></g><g><path fill="#636464" d="M8.445 3.147l.176-.02c.004.037.015.063.034.08a.094.094 0 0 0 .07.026c.038 0 .07-.018.096-.052s.044-.106.05-.215a.213.213 0 0 1-.17.08.26.26 0 0 1-.193-.085.317.317 0 0 1-.08-.225.32.32 0 0 1 .085-.233.29.29 0 0 1 .218-.087c.096 0 .174.037.236.11.061.076.092.197.092.367 0 .174-.033.298-.096.375a.314.314 0 0 1-.25.114.268.268 0 0 1-.18-.058.29.29 0 0 1-.088-.177zm.411-.395c0-.06-.013-.105-.04-.137a.118.118 0 0 0-.094-.05.11.11 0 0 0-.084.04c-.021.027-.033.07-.033.13 0 .062.012.107.036.136a.114.114 0 0 0 .09.042c.036 0 .065-.014.089-.041s.036-.068.036-.12zm.476.104a.222.222 0 0 1-.103-.082.217.217 0 0 1-.031-.114c0-.07.025-.13.074-.175s.12-.069.21-.069a.3.3 0 0 1 .21.069c.05.046.074.104.074.175a.209.209 0 0 1-.13.196c.052.02.091.052.119.092.027.04.04.087.04.14 0 .086-.027.159-.083.213a.306.306 0 0 1-.222.081.337.337 0 0 1-.215-.067.266.266 0 0 1-.101-.22c0-.052.013-.098.037-.14a.245.245 0 0 1 .121-.099zm.02.222c0 .05.013.089.04.117a.123.123 0 0 0 .095.042.124.124 0 0 0 .093-.04.17.17 0 0 0 .037-.117.15.15 0 0 0-.037-.107.123.123 0 0 0-.095-.04c-.045 0-.078.015-.1.046a.165.165 0 0 0-.033.099zm.017-.406c0 .036.011.065.03.085.02.02.05.03.083.03.035 0 .061-.01.082-.03a.117.117 0 0 0 .031-.086.11.11 0 0 0-.03-.08.111.111 0 0 0-.08-.032.115.115 0 0 0-.085.031.115.115 0 0 0-.03.082zm.582.694v-.182h.18v.182h-.18zm.942-.714l-.176.018a.132.132 0 0 0-.033-.08.1.1 0 0 0-.07-.025.116.116 0 0 0-.097.052c-.027.035-.044.105-.05.215a.21.21 0 0 1 .168-.08.26.26 0 0 1 .195.086c.054.057.08.132.08.223a.322.322 0 0 1-.084.234.293.293 0 0 1-.22.086.292.292 0 0 1-.235-.11c-.061-.074-.092-.196-.092-.365 0-.174.032-.299.096-.375a.309.309 0 0 1 .25-.114c.071 0 .13.019.178.06.047.04.077.098.09.175zm-.411.395c0 .059.014.105.04.136.028.032.058.049.093.049a.102.102 0 0 0 .084-.04c.023-.026.034-.07.034-.128 0-.063-.012-.107-.037-.136a.11.11 0 0 0-.09-.043.11.11 0 0 0-.087.041c-.025.028-.037.068-.037.121zm.533-.394c0-.085.019-.148.056-.189s.087-.06.151-.06c.066 0 .117.02.155.06.037.041.056.104.056.189s-.019.148-.056.19a.194.194 0 0 1-.151.06c-.066 0-.118-.02-.155-.06s-.056-.105-.056-.19zm.141-.001c0 .061.007.103.022.124.01.015.025.023.044.023.02 0 .034-.008.045-.023.014-.02.021-.063.021-.124s-.007-.103-.021-.123a.052.052 0 0 0-.045-.024.053.053 0 0 0-.044.023c-.015.021-.022.062-.022.124zm.204.75h-.134l.504-.998h.13l-.5.998zm.293-.25c0-.083.018-.146.056-.188a.196.196 0 0 1 .153-.06.2.2 0 0 1 .153.06c.038.042.056.105.056.189 0 .086-.018.148-.056.19a.195.195 0 0 1-.151.06.196.196 0 0 1-.155-.06c-.038-.042-.056-.104-.056-.19zm.142 0c0 .062.006.103.021.123a.05.05 0 0 0 .044.025.05.05 0 0 0 .044-.023c.015-.022.022-.063.022-.124s-.007-.103-.02-.124a.053.053 0 0 0-.046-.024.051.051 0 0 0-.044.024c-.015.021-.021.062-.021.124z"/></g><g><path fill="#636464" d="M8.428 5.257l.175-.021c.006.045.021.079.045.103a.124.124 0 0 0 .09.036.124.124 0 0 0 .094-.043.165.165 0 0 0 .038-.115.158.158 0 0 0-.037-.11.118.118 0 0 0-.09-.04.317.317 0 0 0-.082.014l.02-.147c.049.001.086-.009.112-.031a.115.115 0 0 0 .039-.092.101.101 0 0 0-.03-.075.102.102 0 0 0-.075-.029.11.11 0 0 0-.08.033.15.15 0 0 0-.039.095l-.167-.03a.397.397 0 0 1 .053-.136.237.237 0 0 1 .098-.082.343.343 0 0 1 .141-.028c.088 0 .16.028.214.085a.222.222 0 0 1 .067.157c0 .083-.046.15-.137.2.054.01.098.036.13.077.033.04.05.09.05.147 0 .083-.032.153-.092.212a.313.313 0 0 1-.226.088c-.086 0-.157-.025-.213-.074s-.09-.114-.098-.194zm1.097.251v-.19h-.388v-.16l.41-.599H9.7v.6h.118v.16H9.7v.19h-.175zm0-.35v-.323l-.217.324h.217zm.418.35v-.18h.181v.18h-.181zm.33-.243l.182-.02c.005.043.02.075.046.1a.126.126 0 0 0 .183-.011c.026-.032.04-.078.04-.14 0-.058-.014-.102-.04-.131a.131.131 0 0 0-.101-.043.186.186 0 0 0-.14.068l-.148-.02.094-.493h.479v.17h-.342l-.028.16a.27.27 0 0 1 .124-.03c.08 0 .148.03.204.088s.084.135.084.228a.335.335 0 0 1-.068.208.298.298 0 0 1-.256.126c-.087 0-.159-.024-.214-.07s-.087-.11-.099-.19zm.734-.47c0-.085.019-.146.057-.188a.196.196 0 0 1 .15-.06.2.2 0 0 1 .155.06c.038.04.056.103.056.188 0 .086-.018.149-.056.19a.194.194 0 0 1-.151.06c-.066 0-.118-.02-.154-.06-.038-.041-.057-.104-.057-.19zm.141 0c0 .06.008.103.022.123a.05.05 0 0 0 .045.024.052.052 0 0 0 .045-.024c.014-.02.02-.062.02-.124s-.006-.102-.02-.122a.05.05 0 0 0-.045-.024.05.05 0 0 0-.045.023c-.014.02-.022.062-.022.123zm.205.75h-.135l.505-.999h.13l-.5.998zm.293-.249c0-.085.018-.147.056-.188s.088-.062.152-.062c.065 0 .116.02.153.062s.056.103.056.188-.018.149-.056.189a.195.195 0 0 1-.151.061.198.198 0 0 1-.154-.061c-.037-.04-.056-.104-.056-.189zm.141 0c0 .06.007.103.022.122.01.016.025.025.044.025s.034-.009.044-.023c.015-.021.021-.063.021-.123 0-.063-.006-.104-.02-.125-.01-.015-.025-.024-.045-.024s-.034.009-.044.024c-.015.02-.022.062-.022.124z"/></g><g><path fill="#636464" d="M8.412 7.404l.181-.019a.16.16 0 0 0 .046.098.126.126 0 0 0 .185-.01c.025-.032.038-.078.038-.14 0-.057-.013-.102-.038-.131a.134.134 0 0 0-.102-.043c-.053 0-.1.023-.14.069l-.148-.022.093-.492h.48v.17h-.342l-.028.16a.273.273 0 0 1 .329.058.32.32 0 0 1 .083.229.344.344 0 0 1-.068.208.303.303 0 0 1-.256.125.316.316 0 0 1-.213-.07.293.293 0 0 1-.1-.19zm1.088.243v-.19h-.387v-.159l.41-.6h.153v.6h.118v.16h-.118v.189h-.175zm0-.349v-.324l-.217.324h.218zm.418.349v-.18h.182v.18h-.182zm.685 0v-.19h-.388v-.159l.41-.6h.153v.6h.118v.16h-.118v.189h-.175zm0-.349v-.324l-.218.324h.218zm.38-.363c0-.085.019-.147.056-.188s.087-.062.151-.062c.067 0 .118.02.155.06.038.043.056.105.056.19s-.018.148-.056.189a.192.192 0 0 1-.151.061c-.066 0-.118-.02-.155-.061s-.056-.104-.056-.189zm.142 0c0 .06.006.102.02.122a.053.053 0 0 0 .045.023.05.05 0 0 0 .045-.023c.014-.02.022-.062.022-.123s-.008-.102-.022-.123a.05.05 0 0 0-.045-.024.053.053 0 0 0-.044.023c-.015.02-.021.063-.021.124zm.204.75h-.135l.504-1h.13l-.499 1zm.293-.25c0-.084.019-.147.056-.188.036-.041.087-.062.152-.062s.116.02.153.062.056.104.056.188c0 .085-.018.149-.056.19s-.088.06-.151.06c-.066 0-.118-.02-.154-.06-.037-.042-.056-.105-.056-.19zm.141 0c0 .06.007.103.02.123a.053.053 0 0 0 .046.024c.02 0 .034-.008.044-.024.014-.02.021-.062.021-.123 0-.062-.007-.103-.02-.125a.054.054 0 0 0-.045-.023.055.055 0 0 0-.045.023c-.014.022-.02.063-.02.125z"/></g><g opacity=".5"><path fill="#949292" d="M1.384 11.017v.611h-.169v-.61H1v-.146h.598v.145h-.214zm.884-.145v.15H1.89v.155h.34v.145h-.34v.157h.39v.15H1.72v-.757h.547zm.588 0h.202l-.235.364.256.393h-.206l-.162-.25-.16.25h-.204l.255-.388-.238-.37h.203l.144.224.145-.223zm.646.145v.611h-.168v-.61h-.215v-.146h.598v.145h-.215zm1.239.106c0 .12-.05.199-.145.234l.192.272H4.58l-.168-.243h-.117v.243h-.169v-.757h.287c.118 0 .202.02.252.06.05.038.076.103.076.19zm-.205.09c.022-.02.032-.05.032-.09 0-.04-.01-.069-.033-.083-.02-.016-.058-.024-.113-.024h-.127v.225h.123c.059 0 .098-.01.118-.029zm.923-.341v.15h-.377v.155h.339v.145h-.339v.157h.389v.15h-.557v-.757h.545zm.692 0h.168v.756h-.168l-.36-.474v.474h-.17v-.756h.158l.372.486v-.486zm.933.098c.072.067.108.158.108.276s-.035.21-.106.279c-.07.068-.177.103-.322.103h-.26v-.756h.27c.134 0 .237.033.31.098zm-.124.45c.042-.039.062-.095.062-.17 0-.075-.02-.131-.062-.171-.042-.04-.105-.06-.191-.06h-.094v.46h.106c.078 0 .137-.02.179-.059zm.924-.548v.15h-.377v.155h.34v.145h-.34v.157h.39v.15h-.56v-.757h.547zm.776.25c0 .122-.048.2-.143.235l.191.272H8.5l-.168-.243h-.117v.243h-.169v-.757h.288c.117 0 .201.02.251.06.05.038.075.103.075.19zm-.204.09c.022-.018.032-.048.032-.09 0-.04-.01-.068-.032-.082-.021-.016-.06-.024-.114-.024h-.127v.225h.123c.058 0 .098-.01.118-.029zm.378-.34h.169v.756h-.169v-.756zm.884 0h.169v.756h-.17l-.36-.474v.474h-.168v-.756h.158l.37.486v-.486zm.847.37h.17v.27a.4.4 0 0 1-.312.125.384.384 0 0 1-.394-.39c0-.112.039-.205.116-.28a.381.381 0 0 1 .278-.113.41.41 0 0 1 .282.108l-.087.126a.346.346 0 0 0-.093-.06.263.263 0 0 0-.093-.018.22.22 0 0 0-.162.066.23.23 0 0 0-.067.173c0 .071.022.128.064.17s.093.065.15.065c.06 0 .108-.012.148-.033v-.208z"/></g><g><path fill="#636464" d="M8.586 13.335a.21.21 0 0 1-.102-.082.209.209 0 0 1-.032-.113.23.23 0 0 1 .073-.176c.05-.046.12-.068.21-.068s.16.022.21.068a.23.23 0 0 1 .075.176.208.208 0 0 1-.13.195.24.24 0 0 1 .161.232.284.284 0 0 1-.085.214.304.304 0 0 1-.222.082.332.332 0 0 1-.215-.069.264.264 0 0 1-.101-.219c0-.051.012-.098.038-.14a.24.24 0 0 1 .12-.1zm.02.223c0 .05.014.088.039.117a.126.126 0 0 0 .096.041.117.117 0 0 0 .093-.04c.024-.027.037-.065.037-.117a.148.148 0 0 0-.038-.105.122.122 0 0 0-.095-.041c-.044 0-.077.015-.098.046a.166.166 0 0 0-.033.1zm.017-.405c0 .036.01.064.03.084a.11.11 0 0 0 .082.031c.035 0 .063-.01.083-.031s.031-.049.031-.085c0-.034-.01-.06-.03-.082a.115.115 0 0 0-.081-.03.114.114 0 0 0-.084.03.112.112 0 0 0-.031.083zm.581.692v-.181h.181v.181h-.18zm.684 0v-.19h-.387v-.158l.41-.601h.153v.6h.117v.16h-.117v.19h-.176zm0-.35v-.323l-.217.324h.217zm.38-.362c0-.085.02-.146.057-.188a.192.192 0 0 1 .151-.062.2.2 0 0 1 .154.06c.038.043.057.105.057.19s-.019.148-.056.189a.194.194 0 0 1-.152.061.2.2 0 0 1-.154-.06c-.038-.042-.056-.105-.056-.19zm.142 0c0 .06.008.102.022.122.01.017.025.024.044.024s.034-.007.045-.024c.014-.02.021-.061.021-.123s-.007-.102-.02-.123c-.012-.016-.027-.024-.046-.024s-.034.008-.044.023c-.014.02-.022.063-.022.124zm.204.75h-.135l.505-1h.13l-.5 1zm.293-.249c0-.085.019-.148.056-.19s.088-.06.152-.06c.066 0 .116.02.154.06.037.042.055.105.055.19 0 .084-.018.148-.055.188a.193.193 0 0 1-.152.062.195.195 0 0 1-.154-.062c-.037-.04-.056-.104-.056-.188zm.141-.002c0 .063.008.104.022.124a.05.05 0 0 0 .044.024c.02 0 .034-.008.045-.023.014-.021.021-.062.021-.125a.267.267 0 0 0-.02-.124.056.056 0 0 0-.046-.022.051.051 0 0 0-.044.022.259.259 0 0 0-.022.124z"/></g><g><path fill="#636464" d="M8.844 15.998h-.182v-.682a.622.622 0 0 1-.234.137v-.164a.533.533 0 0 0 .154-.088.332.332 0 0 0 .115-.152h.147v.949zm.577-.949c.092 0 .164.033.215.098.06.078.093.206.093.385s-.032.308-.094.387a.261.261 0 0 1-.214.097.272.272 0 0 1-.223-.107c-.056-.072-.084-.198-.084-.378 0-.179.03-.307.093-.385a.257.257 0 0 1 .214-.097zm0 .15a.091.091 0 0 0-.058.021.143.143 0 0 0-.04.074 1.04 1.04 0 0 0-.02.238c0 .111.006.187.017.23.012.041.026.068.043.082s.037.02.059.02a.088.088 0 0 0 .058-.02c.017-.013.03-.039.04-.076.012-.046.02-.125.02-.236 0-.11-.007-.187-.018-.229-.012-.04-.025-.07-.042-.083s-.037-.021-.059-.021zm.735-.15a.26.26 0 0 1 .215.098c.061.078.092.206.092.385s-.03.308-.093.387c-.05.063-.122.097-.214.097s-.166-.036-.223-.107-.084-.198-.084-.378c0-.179.03-.307.093-.385a.257.257 0 0 1 .214-.097zm0 .15a.091.091 0 0 0-.058.021c-.018.014-.031.04-.04.074a1.076 1.076 0 0 0-.019.238c0 .111.005.187.017.23.01.041.025.068.042.082s.036.02.058.02a.088.088 0 0 0 .06-.02c.016-.013.03-.039.039-.076.012-.046.019-.125.019-.236a.988.988 0 0 0-.018-.229c-.01-.04-.024-.07-.041-.083s-.037-.021-.059-.021zm.43.088c0-.086.019-.148.056-.189a.192.192 0 0 1 .152-.061c.065 0 .116.02.154.06.037.041.056.104.056.19 0 .085-.019.147-.056.187a.192.192 0 0 1-.152.062c-.065 0-.117-.02-.154-.062-.037-.039-.056-.102-.056-.187zm.141-.002c0 .061.007.104.022.124a.053.053 0 0 0 .09 0c.013-.02.02-.063.02-.124 0-.06-.007-.102-.02-.122a.051.051 0 0 0-.046-.025.051.051 0 0 0-.044.024c-.015.02-.022.062-.022.123zm.204.75h-.134l.504-.998h.13l-.5.998zm.293-.25c0-.083.019-.147.056-.187a.195.195 0 0 1 .153-.061c.065 0 .115.02.153.061.038.04.056.104.056.188 0 .086-.018.149-.056.19a.193.193 0 0 1-.151.061c-.066 0-.118-.02-.155-.061-.037-.04-.056-.104-.056-.19zm.142 0c0 .063.007.103.021.124.01.016.025.024.045.024a.049.049 0 0 0 .043-.023c.016-.022.022-.062.022-.124s-.006-.104-.02-.124a.056.056 0 0 0-.045-.024.051.051 0 0 0-.045.024c-.014.02-.021.062-.021.124z"/></g><g><path fill="#636464" d="M8.457 17.912l.175-.02c.006.045.02.08.045.102a.12.12 0 0 0 .09.037.127.127 0 0 0 .094-.043.165.165 0 0 0 .038-.115.155.155 0 0 0-.037-.11.119.119 0 0 0-.09-.038.286.286 0 0 0-.083.013l.02-.148c.05 0 .087-.01.113-.031a.118.118 0 0 0 .039-.09.113.113 0 0 0-.029-.078c-.019-.02-.044-.026-.075-.026a.11.11 0 0 0-.08.032.162.162 0 0 0-.04.093l-.167-.029c.011-.057.029-.102.052-.137s.057-.062.098-.08a.33.33 0 0 1 .142-.029c.088 0 .16.03.214.084.044.047.066.1.066.16 0 .082-.045.147-.136.197a.216.216 0 0 1 .13.079c.032.04.049.09.049.144 0 .084-.03.156-.09.213a.315.315 0 0 1-.228.09.316.316 0 0 1-.213-.074.295.295 0 0 1-.097-.196zm1.096.252v-.19h-.387v-.158l.41-.601h.153v.601h.117v.159H9.73v.19h-.176zm0-.348v-.324l-.217.324h.217zm.418.348v-.18h.182v.18H9.97zm.329-.764v-.168h.62v.131a.986.986 0 0 0-.156.217 1.303 1.303 0 0 0-.121.299 1.141 1.141 0 0 0-.04.285h-.175a1.32 1.32 0 0 1 .285-.764H10.3zm.736.053c0-.086.019-.148.056-.191a.198.198 0 0 1 .152-.059.2.2 0 0 1 .154.059c.038.043.056.105.056.191 0 .082-.018.147-.056.188a.2.2 0 0 1-.151.062.204.204 0 0 1-.155-.062c-.037-.041-.056-.106-.056-.188zm.142-.002c0 .06.006.102.02.125a.056.056 0 0 0 .046.022.054.054 0 0 0 .045-.022.264.264 0 0 0 .021-.125c0-.062-.008-.103-.021-.125a.054.054 0 0 0-.045-.021.051.051 0 0 0-.045.021c-.014.022-.021.063-.021.125zm.204.748h-.135l.504-.996h.13l-.499.996zm.292-.248c0-.082.02-.146.056-.187a.196.196 0 0 1 .153-.06c.065 0 .116.019.153.06.038.04.056.105.056.187 0 .088-.018.15-.056.192a.198.198 0 0 1-.151.058.204.204 0 0 1-.155-.058c-.037-.041-.056-.104-.056-.192zm.141-.002c0 .065.008.106.022.127.012.014.026.024.045.024.02 0 .035-.01.044-.024.014-.021.021-.062.021-.127 0-.058-.007-.1-.02-.119a.05.05 0 0 0-.045-.025.05.05 0 0 0-.045.025c-.014.02-.022.06-.022.12z"/></g><g opacity=".5"><path fill="#949292" d="M1.384 22.12v.61h-.169v-.61H1v-.147h.598v.146h-.214zm.884-.147v.148H1.89v.158h.34v.143h-.34v.156h.39v.152H1.72v-.757h.547zm.588 0h.202l-.235.363.256.395h-.206l-.162-.25-.16.25h-.204l.255-.391-.238-.367h.203l.144.222.145-.222zm.646.146v.611h-.168v-.61h-.215v-.147h.598v.146h-.215zm1.239.106c0 .119-.05.199-.145.234l.192.272H4.58l-.168-.243h-.117v.242h-.169v-.757h.287c.118 0 .202.017.252.058.05.041.076.104.076.194zm-.205.09c.022-.02.032-.051.032-.09 0-.043-.01-.07-.033-.084-.02-.018-.058-.022-.113-.022h-.127v.22h.123c.059 0 .098-.007.118-.024zm.923-.342v.148h-.377v.158h.339v.143h-.339v.156h.389v.152h-.557v-.757h.545zm.692 0h.168v.758h-.168l-.36-.477v.476h-.17v-.757h.158l.372.486v-.486zm.933.097a.357.357 0 0 1 .108.278.366.366 0 0 1-.106.277c-.07.07-.177.105-.322.105h-.26v-.757h.27c.134 0 .237.033.31.097zm-.124.451c.042-.039.062-.095.062-.17s-.02-.13-.062-.171c-.042-.041-.105-.06-.191-.06h-.094v.458h.106c.078 0 .137-.017.179-.056zm.924-.548v.148h-.377v.158h.34v.143h-.34v.156h.39v.152h-.56v-.757h.547zm.776.252c0 .119-.048.199-.143.234l.191.272H8.5l-.168-.243h-.117v.242h-.169v-.757h.288c.117 0 .201.017.251.058.05.041.075.104.075.194zm-.204.09c.022-.02.032-.051.032-.09 0-.043-.01-.07-.032-.084-.021-.018-.06-.022-.114-.022h-.127v.22h.123c.058 0 .098-.007.118-.024zm.378-.342h.169v.758h-.169v-.758zm.884 0h.169v.758h-.17l-.36-.477v.476h-.168v-.757h.158l.37.486v-.486zm.847.369h.17v.27a.391.391 0 0 1-.312.126.384.384 0 0 1-.394-.388c0-.114.039-.207.116-.282a.408.408 0 0 1 .56-.006l-.087.128a.338.338 0 0 0-.093-.063.286.286 0 0 0-.093-.017.224.224 0 0 0-.162.066c-.045.045-.067.103-.067.174s.022.129.064.172a.212.212 0 0 0 .15.064c.06 0 .108-.014.148-.035v-.21z"/></g><g><path fill="#636464" d="M8.428 24.697l.175-.02c.006.046.021.08.045.104a.124.124 0 0 0 .09.035c.037 0 .069-.015.094-.04a.176.176 0 0 0 .039-.12.155.155 0 0 0-.037-.107.128.128 0 0 0-.09-.04.24.24 0 0 0-.083.016l.02-.148c.049 0 .086-.01.112-.033a.118.118 0 0 0 .039-.09c0-.031-.01-.059-.029-.076s-.044-.027-.075-.027a.11.11 0 0 0-.08.03.143.143 0 0 0-.04.093l-.167-.028a.36.36 0 0 1 .053-.135.22.22 0 0 1 .099-.084.352.352 0 0 1 .14-.027c.089 0 .16.027.214.084.044.047.067.1.067.158 0 .084-.046.149-.136.197a.215.215 0 0 1 .13.082c.033.04.049.086.049.143 0 .084-.031.154-.092.213a.313.313 0 0 1-.226.09.307.307 0 0 1-.214-.076.29.29 0 0 1-.097-.194zm.78.252v-.18h.18v.18h-.18zm.94-.168v.168h-.635a.43.43 0 0 1 .062-.18c.035-.058.102-.132.204-.226.082-.078.132-.129.15-.156a.199.199 0 0 0 .038-.112c0-.04-.01-.072-.033-.091-.021-.024-.052-.034-.09-.034a.12.12 0 0 0-.09.036c-.022.021-.036.058-.04.11l-.18-.017a.314.314 0 0 1 .102-.217.355.355 0 0 1 .213-.062c.093 0 .167.023.22.074s.08.115.08.19a.32.32 0 0 1-.023.12.496.496 0 0 1-.073.122c-.022.027-.06.066-.118.119-.058.055-.094.088-.11.107a.297.297 0 0 0-.036.05h.36zm.125-.545c0-.084.018-.146.056-.19a.198.198 0 0 1 .15-.06c.067 0 .118.022.155.06.038.044.057.106.057.19 0 .086-.02.149-.057.19a.199.199 0 0 1-.151.06.204.204 0 0 1-.154-.06c-.038-.041-.056-.104-.056-.19zm.14-.002c0 .063.008.104.023.127.01.016.025.022.044.022.019 0 .034-.006.045-.022.014-.023.02-.064.02-.127 0-.06-.006-.101-.02-.123a.055.055 0 0 0-.045-.021c-.02 0-.034.006-.044.021-.015.022-.022.063-.022.123zm.205.752h-.135l.505-1h.13l-.5 1zm.292-.25c0-.084.02-.146.057-.187s.088-.06.152-.06c.065 0 .116.019.153.06.038.04.056.103.056.187 0 .086-.018.15-.056.192a.2.2 0 0 1-.151.06.204.204 0 0 1-.154-.06c-.037-.041-.057-.106-.057-.192zm.142-.002c0 .065.007.106.021.125.011.016.026.026.045.026.02 0 .034-.01.044-.026.015-.02.022-.06.022-.125 0-.058-.007-.1-.02-.12a.054.054 0 0 0-.046-.024.051.051 0 0 0-.045.023.248.248 0 0 0-.02.121z"/></g><g><path fill="#636464" d="M9.043 26.361l-.177.02c-.004-.037-.015-.063-.032-.078a.093.093 0 0 0-.072-.03.118.118 0 0 0-.097.053c-.025.033-.042.108-.05.215a.211.211 0 0 1 .17-.078c.075 0 .14.027.194.082a.33.33 0 0 1 .08.226.327.327 0 0 1-.084.235.3.3 0 0 1-.219.088.29.29 0 0 1-.235-.115c-.062-.073-.093-.196-.093-.364 0-.172.032-.299.096-.373a.307.307 0 0 1 .25-.117c.072 0 .131.02.178.059a.305.305 0 0 1 .09.177zm-.412.395c0 .059.014.105.04.139.028.029.059.047.094.047a.113.113 0 0 0 .083-.04c.023-.025.034-.07.034-.129 0-.062-.012-.107-.036-.132a.108.108 0 0 0-.09-.045.114.114 0 0 0-.088.04c-.025.028-.037.067-.037.12zm1.144.15v.17H9.14a.452.452 0 0 1 .061-.182c.035-.056.103-.134.205-.226a1.21 1.21 0 0 0 .15-.156.19.19 0 0 0 .037-.112c0-.039-.01-.07-.032-.093a.132.132 0 0 0-.09-.032.124.124 0 0 0-.09.034c-.023.025-.036.062-.04.117l-.18-.02c.011-.101.045-.172.1-.215a.335.335 0 0 1 .215-.066c.092 0 .167.027.219.076a.25.25 0 0 1 .08.19c0 .043-.007.082-.022.119s-.04.08-.073.123a1.237 1.237 0 0 1-.118.121l-.11.102a.263.263 0 0 0-.037.05h.36zm.161.17v-.181h.182v.181h-.182zm.685 0v-.19h-.388v-.161l.411-.6h.152v.6h.118v.162h-.118v.19h-.175zm0-.351v-.323l-.218.323h.218zm.38-.362c0-.084.02-.146.057-.187.036-.045.087-.06.15-.06.067 0 .118.015.155.06.038.039.057.103.057.187s-.02.147-.057.188a.188.188 0 0 1-.151.062c-.066 0-.118-.02-.154-.062-.038-.041-.056-.102-.056-.188zm.142-.002c0 .065.006.104.021.125.01.016.026.022.044.022.02 0 .035-.006.045-.022.014-.021.021-.06.021-.125 0-.06-.007-.1-.02-.123a.055.055 0 0 0-.046-.023.06.06 0 0 0-.044.021.256.256 0 0 0-.021.125zm.204.752h-.135l.504-.998h.13l-.499.998zm.292-.25c0-.086.02-.146.057-.185a.19.19 0 0 1 .152-.065c.065 0 .116.022.153.065.038.039.056.1.056.185s-.018.149-.056.19a.188.188 0 0 1-.15.062c-.067 0-.118-.02-.155-.062-.037-.041-.057-.104-.057-.19zm.142 0c0 .06.007.1.022.123.01.018.025.026.044.026.02 0 .034-.008.044-.026.015-.023.021-.062.021-.123 0-.062-.006-.105-.02-.125-.01-.015-.025-.021-.045-.021-.02 0-.034.006-.044.021-.015.02-.022.063-.022.125z"/></g><g><path fill="#636464" d="M8.585 28.703a.225.225 0 0 1-.103-.082.21.21 0 0 1-.03-.113c0-.07.024-.127.073-.174.05-.049.12-.072.21-.072s.16.023.21.072c.05.047.074.103.074.174a.204.204 0 0 1-.13.195.242.242 0 0 1 .16.23.29.29 0 0 1-.083.215.303.303 0 0 1-.223.08.344.344 0 0 1-.214-.064.267.267 0 0 1-.101-.22c0-.051.012-.098.037-.141s.066-.076.12-.1zm.021.223c0 .049.014.092.039.117a.128.128 0 0 0 .189.002c.024-.025.036-.066.036-.117 0-.047-.012-.082-.037-.108a.122.122 0 0 0-.095-.039c-.045 0-.077.016-.1.045a.173.173 0 0 0-.032.1zm.017-.406a.12.12 0 0 0 .03.085c.02.02.049.032.082.032a.109.109 0 0 0 .082-.034c.022-.017.032-.048.032-.084s-.01-.06-.03-.082a.123.123 0 0 0-.081-.029c-.036 0-.063.012-.084.031s-.031.047-.031.08zm.546.476l.176-.021c.004.037.015.064.033.08.018.017.041.025.072.025.037 0 .069-.017.095-.053.026-.03.043-.103.05-.214a.207.207 0 0 1-.17.082.26.26 0 0 1-.194-.086.317.317 0 0 1-.08-.225c0-.098.028-.174.085-.232a.292.292 0 0 1 .218-.09c.096 0 .174.037.237.113.06.074.091.196.091.367s-.032.297-.095.373a.31.31 0 0 1-.251.114c-.074 0-.134-.016-.18-.057a.287.287 0 0 1-.087-.176zm.41-.396a.204.204 0 0 0-.04-.137.114.114 0 0 0-.093-.047.102.102 0 0 0-.084.04c-.022.024-.033.065-.033.128 0 .06.012.105.036.133a.108.108 0 0 0 .09.045.11.11 0 0 0 .088-.043c.024-.026.037-.067.037-.12zm.36.615v-.182h.181v.182H9.94zm.322-.25l.175-.024c.006.045.02.079.045.104a.123.123 0 0 0 .09.035c.037 0 .069-.015.094-.043a.165.165 0 0 0 .039-.117.159.159 0 0 0-.037-.107.12.12 0 0 0-.09-.04.375.375 0 0 0-.083.014l.02-.148c.049.002.087-.006.112-.031a.116.116 0 0 0 .039-.092.1.1 0 0 0-.029-.074.11.11 0 0 0-.155.004c-.022.019-.035.052-.04.093l-.167-.03a.4.4 0 0 1 .053-.136.242.242 0 0 1 .098-.08.335.335 0 0 1 .14-.031c.09 0 .162.031.216.086.044.047.066.1.066.156 0 .086-.046.152-.137.203a.206.206 0 0 1 .13.076.23.23 0 0 1 .05.147c0 .086-.031.156-.092.213a.312.312 0 0 1-.226.086.306.306 0 0 1-.213-.075.276.276 0 0 1-.098-.19zm.742-.465c0-.082.019-.146.056-.188.037-.04.088-.058.152-.058.066 0 .118.018.154.059.038.039.056.105.056.187 0 .086-.018.148-.056.19a.194.194 0 0 1-.152.062.198.198 0 0 1-.154-.063c-.037-.04-.056-.101-.056-.189zm.142 0c0 .063.007.103.021.125.01.014.026.021.045.021a.055.055 0 0 0 .045-.021c.014-.021.02-.063.02-.125s-.006-.102-.02-.123a.05.05 0 0 0-.045-.025.052.052 0 0 0-.045.023c-.014.023-.021.063-.021.125zm.204.752h-.135l.504-.998h.131l-.5.998zm.293-.25c0-.088.019-.148.055-.19a.196.196 0 0 1 .153-.06c.065 0 .116.02.153.06.038.041.056.102.056.19 0 .086-.018.146-.056.188a.19.19 0 0 1-.152.064.193.193 0 0 1-.154-.065c-.036-.04-.055-.101-.055-.187zm.14 0c0 .059.009.1.022.121.011.016.026.025.045.025a.05.05 0 0 0 .044-.025c.015-.021.021-.062.021-.121 0-.065-.006-.105-.02-.125a.053.053 0 0 0-.045-.023.052.052 0 0 0-.045.023c-.014.02-.021.06-.021.125z"/></g><g><path fill="#636464" d="M1.352 3.026l.142-.46h.186l.141.46.159-.46h.194l-.28.8h-.132l-.176-.557-.173.557H1.28l-.28-.8h.194l.158.46zm.917-.46h.178v.8H2.27v-.8zm.935 0h.178v.8h-.178l-.381-.501v.5h-.179v-.8h.167l.393.516v-.515zm.986.104c.077.07.115.167.115.291a.395.395 0 0 1-.112.296c-.074.073-.188.109-.34.109h-.274v-.8h.283c.142 0 .252.034.328.104zm-.13.476c.043-.041.065-.102.065-.18 0-.079-.022-.14-.066-.181s-.11-.064-.202-.064h-.1v.486h.114c.082 0 .144-.02.188-.061zm1.072.11c-.08.079-.18.118-.298.118a.411.411 0 0 1-.42-.414c0-.117.04-.215.12-.295.082-.079.181-.118.3-.118a.41.41 0 0 1 .42.413c0 .118-.041.216-.122.295zm-.06-.295a.26.26 0 0 0-.069-.182c-.046-.051-.102-.076-.169-.076s-.123.025-.169.076c-.045.05-.068.111-.068.182s.023.132.068.182c.046.05.102.075.169.075s.123-.025.169-.075.069-.11.069-.182zm.57.065l.142-.46h.186l.14.46.16-.46h.193l-.279.8h-.133l-.175-.557-.174.557H5.57l-.279-.8h.193l.159.46zm1.098-.3a.071.071 0 0 0-.026.056c0 .022.01.04.032.054.02.015.069.03.145.05a.41.41 0 0 1 .176.083c.042.038.063.093.063.164s-.026.13-.08.175a.325.325 0 0 1-.213.067.493.493 0 0 1-.342-.141l.107-.131c.086.076.166.114.239.114a.13.13 0 0 0 .078-.021.07.07 0 0 0 .027-.058.065.065 0 0 0-.03-.056.382.382 0 0 0-.117-.043.509.509 0 0 1-.205-.087c-.043-.035-.064-.091-.064-.167s.027-.135.081-.176a.332.332 0 0 1 .205-.062.486.486 0 0 1 .3.106l-.09.13a.353.353 0 0 0-.216-.08.11.11 0 0 0-.07.022z"/></g><g><path fill="#636464" d="M1.815 5.043L1.6 5.48h-.106l-.216-.437v.503H1.1v-.8h.241l.206.44.207-.44h.241v.8h-.179v-.503zm.946.503l-.075-.173h-.335l-.074.173h-.19l.345-.8h.173l.346.8h-.19zm-.242-.561l-.1.232h.2l-.1-.232zm.892.403c.088 0 .16-.034.215-.103l.114.118c-.09.101-.198.153-.32.153s-.225-.039-.305-.117a.394.394 0 0 1-.12-.295.413.413 0 0 1 .42-.416.42.42 0 0 1 .33.15l-.111.126a.26.26 0 0 0-.21-.105.246.246 0 0 0-.173.065c-.047.044-.071.104-.071.178s.022.134.067.179.1.067.164.067zm1.445.048c-.08.08-.18.118-.298.118a.411.411 0 0 1-.42-.413.412.412 0 0 1 .42-.413.412.412 0 0 1 .42.413c0 .118-.04.216-.122.295zm-.06-.294c0-.071-.023-.132-.069-.183s-.102-.075-.169-.075-.123.025-.168.075c-.046.051-.07.112-.07.183s.024.132.07.182c.045.05.101.075.168.075s.123-.025.169-.075.069-.11.069-.182zm.513-.236c-.017.014-.026.033-.026.056s.01.042.032.056.07.03.145.049a.399.399 0 0 1 .177.084c.042.037.063.092.063.163 0 .072-.027.13-.08.175s-.125.067-.213.067a.494.494 0 0 1-.343-.141l.107-.13c.086.075.166.113.24.113a.123.123 0 0 0 .077-.022.067.067 0 0 0 .027-.056.066.066 0 0 0-.03-.058.382.382 0 0 0-.117-.043.522.522 0 0 1-.204-.086c-.043-.036-.065-.091-.065-.168 0-.075.027-.133.082-.174a.326.326 0 0 1 .204-.063c.053 0 .107.01.16.027.054.019.1.045.14.078l-.09.131a.352.352 0 0 0-.216-.079.11.11 0 0 0-.07.02zm.987-.16h.215l-.25.386.27.414h-.216l-.171-.262-.17.262H5.76l.27-.409-.251-.39h.214l.152.237.152-.237z"/></g><g><path fill="#636464" d="M1.31 7.479c.03.037.07.056.12.056s.091-.019.12-.056.045-.088.045-.151v-.443h.178v.448c0 .116-.032.205-.096.267a.338.338 0 0 1-.246.094c-.1 0-.183-.032-.247-.095s-.097-.151-.097-.267v-.447h.18v.443c0 .063.014.114.044.151zm.999.206h-.35v-.8h.31a.46.46 0 0 1 .141.02c.04.013.069.03.088.052a.206.206 0 0 1 .054.14c0 .063-.02.11-.06.14a.154.154 0 0 1-.029.02.327.327 0 0 1-.028.013.21.21 0 0 1 .118.067c.03.034.044.076.044.126a.215.215 0 0 1-.057.148c-.044.05-.122.074-.231.074zm-.172-.475h.085c.05 0 .086-.006.11-.017s.036-.033.036-.068c0-.037-.011-.06-.033-.072a.278.278 0 0 0-.112-.016h-.086v.173zm0 .325h.122c.052 0 .09-.007.115-.02s.039-.037.039-.074-.014-.062-.04-.073a.35.35 0 0 0-.13-.018h-.106v.185zm.822-.056c.03.037.07.056.12.056.05 0 .09-.019.12-.056a.239.239 0 0 0 .044-.151v-.443h.178v.448c0 .116-.032.205-.096.267a.34.34 0 0 1-.246.094.342.342 0 0 1-.247-.095c-.064-.062-.097-.151-.097-.267v-.447h.18v.443c0 .063.014.114.044.151zm1.207-.594h.179v.8h-.179l-.38-.5v.5h-.18v-.8h.168l.392.516v-.516zm.714.155v.645h-.178V7.04h-.227v-.155h.632v.155H4.88zm.57.439c.029.037.069.056.12.056s.09-.019.119-.056.044-.088.044-.151v-.443h.179v.448c0 .116-.033.205-.097.267s-.146.094-.246.094-.182-.032-.246-.095-.097-.151-.097-.267v-.447h.179v.443c0 .063.014.114.044.151z"/></g><g><path fill="#636464" d="M1.352 13.538l.142-.461h.186l.141.46.159-.46h.194l-.28.8h-.132l-.176-.556-.173.557H1.28L1 13.077h.194l.158.46zm.917-.461h.178v.8H2.27v-.8zm.935 0h.178v.8h-.178l-.381-.501v.502h-.179v-.801h.167l.393.515v-.515zm.986.105c.077.07.115.167.115.291s-.037.223-.112.295c-.074.073-.188.11-.34.11h-.274v-.801h.283c.142 0 .252.035.328.105zm-.13.476c.043-.042.065-.102.065-.18 0-.08-.022-.14-.066-.182-.044-.043-.11-.063-.202-.063h-.1v.486h.114c.082 0 .144-.02.188-.061zm1.072.108c-.08.08-.18.12-.298.12a.412.412 0 0 1-.42-.414c0-.118.04-.216.12-.295.082-.079.181-.118.3-.118a.41.41 0 0 1 .42.413c0 .117-.041.216-.122.294zm-.06-.294a.262.262 0 0 0-.069-.182c-.046-.05-.102-.076-.169-.076s-.123.026-.169.076c-.045.05-.068.11-.068.182s.023.133.068.183c.046.05.102.075.169.075s.123-.025.169-.075.069-.111.069-.183zm.57.066l.142-.461h.186l.14.46.16-.46h.193l-.279.8h-.133l-.175-.556-.174.556H5.57l-.279-.8h.193l.159.46zm1.098-.301c-.017.014-.026.032-.026.056s.01.042.031.055.07.03.145.049c.077.019.135.047.177.084s.063.092.063.164c0 .071-.027.13-.08.174a.32.32 0 0 1-.213.067.493.493 0 0 1-.342-.14l.106-.131c.087.076.166.113.24.113a.13.13 0 0 0 .077-.02c.019-.015.028-.034.028-.058s-.01-.043-.03-.058a.407.407 0 0 0-.117-.043c-.094-.021-.162-.05-.205-.086s-.065-.09-.065-.167.028-.134.082-.175a.332.332 0 0 1 .205-.062.486.486 0 0 1 .3.105l-.09.13a.353.353 0 0 0-.216-.079.104.104 0 0 0-.07.022z"/></g><g><path fill="#636464" d="M1.815 15.554l-.216.438h-.106l-.216-.438v.505H1.1v-.8h.241l.206.439.207-.44h.241v.8h-.179v-.504zm.946.505l-.075-.174h-.335l-.074.174h-.19l.345-.8h.173l.346.8h-.19zm-.242-.563l-.1.232h.2l-.1-.232zm.892.404c.088 0 .16-.034.215-.104l.114.118c-.09.102-.198.152-.32.152s-.225-.039-.305-.115a.395.395 0 0 1-.12-.295.412.412 0 0 1 .42-.416.42.42 0 0 1 .33.15l-.111.125a.261.261 0 0 0-.21-.104.246.246 0 0 0-.173.065c-.047.044-.071.104-.071.178s.022.134.067.179.1.067.164.067zm1.445.048c-.08.08-.18.119-.298.119a.41.41 0 0 1-.42-.414c0-.117.04-.216.12-.295.082-.08.181-.118.3-.118a.41.41 0 0 1 .42.413c0 .117-.04.216-.122.295zm-.06-.294a.26.26 0 0 0-.069-.183c-.046-.05-.102-.076-.169-.076s-.123.025-.168.076c-.046.05-.07.111-.07.183s.024.132.07.181c.045.05.101.076.168.076s.123-.026.169-.076.069-.11.069-.181zm.513-.236a.07.07 0 0 0-.026.056c0 .023.01.041.032.055s.07.03.145.049a.41.41 0 0 1 .177.084c.042.038.063.092.063.164 0 .072-.027.13-.08.174a.32.32 0 0 1-.213.066.494.494 0 0 1-.343-.14l.107-.13c.086.076.166.114.24.114a.13.13 0 0 0 .077-.022.069.069 0 0 0 .027-.057.065.065 0 0 0-.03-.057.382.382 0 0 0-.117-.043.508.508 0 0 1-.205-.087c-.043-.035-.064-.09-.064-.167s.027-.135.081-.176a.332.332 0 0 1 .205-.061.486.486 0 0 1 .3.105l-.09.13a.351.351 0 0 0-.216-.078.11.11 0 0 0-.07.02zm.987-.16h.215l-.25.386.27.415h-.216l-.171-.265-.17.265H5.76l.27-.411-.251-.39h.214l.152.237.152-.237z"/></g><g><path fill="#636464" d="M1.31 17.99c.03.037.07.055.12.055s.09-.018.12-.055.045-.088.045-.152v-.441h.178v.447c0 .117-.032.205-.096.267a.338.338 0 0 1-.247.094c-.1 0-.182-.031-.246-.094s-.097-.152-.097-.267v-.448h.179v.442c0 .064.015.115.044.152zm.999.207h-.35v-.8h.31c.055 0 .102.007.141.019.04.014.069.031.088.053a.206.206 0 0 1 .054.14c0 .063-.02.108-.06.139a.119.119 0 0 1-.029.02l-.028.013c.05.012.088.033.118.067a.19.19 0 0 1 .044.127.216.216 0 0 1-.057.148c-.044.049-.122.074-.231.074zm-.172-.476h.085c.05 0 .086-.006.11-.016.024-.012.036-.035.036-.07s-.011-.059-.033-.07-.06-.016-.112-.016h-.086v.172zm0 .324h.122c.052 0 .09-.006.115-.018.026-.013.039-.037.039-.074s-.014-.062-.04-.074a.35.35 0 0 0-.13-.018h-.106v.184zm.822-.055c.03.037.07.055.12.055.05 0 .09-.018.12-.055a.24.24 0 0 0 .044-.152v-.441h.178v.447c0 .117-.032.205-.096.267a.34.34 0 0 1-.246.094.341.341 0 0 1-.247-.094c-.065-.062-.097-.152-.097-.267v-.448h.179v.442c0 .064.015.115.045.152zm1.207-.593h.179v.8h-.179l-.38-.502v.502h-.18v-.8h.168l.392.515v-.515zm.714.154v.646h-.178v-.646h-.227v-.154h.632v.154H4.88zm.57.44c.029.036.069.054.12.054s.09-.018.119-.055.044-.088.044-.152v-.441h.179v.447c0 .117-.033.205-.097.267s-.146.094-.246.094-.182-.031-.246-.094-.097-.152-.097-.267v-.448h.179v.442c0 .064.014.115.044.152z"/></g><g><path fill="#636464" d="M1.352 24.615l.142-.46h.186l.141.46.159-.46h.194l-.28.8h-.132l-.176-.557-.173.557H1.28l-.28-.8h.194l.158.46zm.917-.46h.178v.8H2.27v-.8zm.935 0h.178v.8h-.178l-.381-.502v.502h-.179v-.8h.167l.393.515v-.516zm.986.105c.077.07.115.166.115.29s-.037.223-.112.296c-.074.072-.188.11-.34.11h-.274v-.802h.283c.142 0 .252.035.328.106zm-.13.474c.043-.04.065-.1.065-.18a.242.242 0 0 0-.066-.18c-.044-.042-.11-.063-.202-.063h-.1v.486h.114a.266.266 0 0 0 .188-.063zm1.072.11c-.08.08-.18.119-.298.119s-.218-.04-.3-.12a.393.393 0 0 1-.12-.294.408.408 0 0 1 .42-.412c.118 0 .217.039.298.119.08.078.121.176.121.293 0 .119-.04.217-.12.295zm-.06-.293c0-.072-.023-.133-.069-.184s-.102-.074-.169-.074-.123.023-.169.074a.265.265 0 0 0-.068.184c0 .07.023.13.068.181.046.05.102.075.169.075s.123-.026.169-.075a.262.262 0 0 0 .069-.181zm.57.064l.142-.46h.186l.14.46.16-.46h.193l-.279.8h-.133l-.175-.557-.174.557H5.57l-.279-.8h.193l.159.46zm1.098-.3c-.017.013-.026.033-.026.056s.01.041.031.055.07.03.145.049c.077.02.135.046.177.084s.063.091.063.164-.027.129-.08.174-.125.068-.213.068a.493.493 0 0 1-.342-.14l.106-.132c.087.075.166.114.24.114a.13.13 0 0 0 .077-.022.067.067 0 0 0 .028-.056c0-.026-.01-.045-.03-.059s-.059-.027-.117-.043c-.094-.021-.162-.05-.205-.086s-.065-.092-.065-.168c0-.074.028-.133.082-.174a.32.32 0 0 1 .205-.062c.053 0 .107.01.16.027s.1.045.14.078l-.09.131a.354.354 0 0 0-.216-.08.11.11 0 0 0-.07.021z"/></g><g><path fill="#636464" d="M1.815 26.633l-.216.437h-.106l-.216-.437v.504H1.1v-.801h.241l.206.44.207-.44h.241v.8h-.179v-.503zm.946.504l-.075-.174h-.335l-.074.174h-.19l.345-.801h.173l.346.8h-.19zm-.242-.563l-.1.233h.2l-.1-.233zm.892.404c.088 0 .16-.035.215-.105l.114.12c-.09.1-.198.151-.32.151s-.225-.039-.305-.117a.39.39 0 0 1-.12-.293c0-.119.041-.219.122-.299a.415.415 0 0 1 .299-.117c.13 0 .24.049.33.149l-.112.127a.26.26 0 0 0-.21-.106.243.243 0 0 0-.173.066c-.047.044-.071.102-.071.176s.022.135.067.18.1.069.164.069zm1.445.047c-.08.079-.18.12-.298.12s-.218-.041-.3-.12c-.08-.078-.12-.177-.12-.294s.04-.215.12-.295c.082-.078.181-.118.3-.118s.217.04.298.118c.081.08.121.177.121.295s-.04.216-.12.294zm-.06-.294c0-.07-.023-.131-.069-.182s-.102-.076-.169-.076-.123.025-.168.076a.262.262 0 0 0-.07.182c0 .072.024.132.07.183.045.049.101.074.168.074s.123-.025.17-.074a.264.264 0 0 0 .068-.184zm.513-.235c-.017.014-.026.031-.026.055s.01.043.032.056.07.03.145.05c.076.017.135.046.177.083s.063.092.063.164c0 .07-.027.13-.08.174s-.125.066-.213.066a.493.493 0 0 1-.343-.14l.107-.131c.086.076.166.113.24.113.032 0 .058-.006.077-.021a.065.065 0 0 0 .027-.057c0-.023-.01-.043-.03-.056s-.058-.03-.117-.043c-.093-.022-.162-.051-.205-.086s-.064-.092-.064-.168.027-.135.081-.176a.331.331 0 0 1 .205-.06c.053 0 .107.007.16.027a.42.42 0 0 1 .14.076l-.09.13a.35.35 0 0 0-.216-.077c-.03 0-.053.005-.07.021zm.987-.16h.215l-.25.385.27.416h-.216l-.171-.264-.17.264H5.76l.27-.41-.251-.391h.214l.152.236.152-.236z"/></g><g><path fill="#636464" d="M1.31 29.068c.03.037.07.055.12.055s.09-.018.12-.055.045-.088.045-.152v-.441h.178v.447c0 .117-.032.205-.096.268a.338.338 0 0 1-.247.093c-.1 0-.182-.03-.246-.093s-.097-.153-.097-.268v-.447h.179v.441c0 .064.015.115.044.152zm.999.207h-.35v-.8h.31c.055 0 .102.006.141.02.04.013.069.03.088.052a.205.205 0 0 1 .054.139c0 .062-.02.109-.06.14-.014.01-.024.018-.029.02-.005.004-.015.007-.028.013a.21.21 0 0 1 .118.067.19.19 0 0 1 .044.127.211.211 0 0 1-.057.146c-.044.051-.122.076-.231.076zm-.172-.476h.085c.05 0 .086-.006.11-.016.024-.012.036-.035.036-.07s-.011-.059-.033-.07-.06-.018-.112-.018h-.086v.174zm0 .324h.122c.052 0 .09-.006.115-.018.026-.013.039-.039.039-.074 0-.037-.014-.062-.04-.074a.35.35 0 0 0-.13-.018h-.106v.184zm.822-.055c.03.037.07.055.12.055.05 0 .09-.018.12-.055a.24.24 0 0 0 .044-.152v-.441h.178v.447c0 .117-.032.205-.096.268a.34.34 0 0 1-.246.093.341.341 0 0 1-.247-.093c-.065-.063-.097-.153-.097-.268v-.447h.179v.441c0 .064.015.115.045.152zm1.207-.593h.179v.8h-.179l-.38-.502v.502h-.18v-.8h.168l.392.515v-.515zm.714.154v.646h-.178v-.646h-.227v-.154h.632v.154H4.88zm.57.44c.029.037.069.054.12.054s.09-.018.119-.055.044-.088.044-.152v-.441h.179v.447c0 .117-.033.205-.097.267s-.146.094-.246.094-.182-.03-.246-.094-.097-.152-.097-.267v-.447h.179v.441c0 .064.014.115.044.152z"/></g></svg>